<svg width="99" height="108" viewBox="0 0 99 108" fill="none" xmlns="http://www.w3.org/2000/svg">
<rect x="45.3838" width="53.1042" height="83.6794" fill="#C4C4C4"/>
<path d="M92.0511 49.8858H51.8207L61.5909 25.7476L73.0854 41.265L79.4073 34.3684L92.0511 49.8858Z" fill="white"/>
<rect x="13.9642" y="44.2197" width="21.4162" height="33.7468" fill="#C4C4C4"/>
<path d="M39.4757 24.437H9.39898C4.21074 24.437 0 28.6432 0 33.8258L0 97.6697C0 102.852 4.21074 107.058 9.39898 107.058H39.4757C44.6639 107.058 48.8747 102.852 48.8747 97.6697V33.8258C48.8747 28.6432 44.6639 24.437 39.4757 24.437ZM24.4373 103.303C21.3169 103.303 18.798 100.787 18.798 97.6697C18.798 94.5526 21.3169 92.0364 24.4373 92.0364C27.5578 92.0364 30.0767 94.5526 30.0767 97.6697C30.0767 100.787 27.5578 103.303 24.4373 103.303ZM41.3555 88.2809H7.51918L7.51918 35.7036H41.3555V88.2809Z" fill="black"/>
<path d="M20 51V64L30 57.5L20 51Z" fill="white"/>
</svg>
