<svg width="1840" height="487" viewBox="0 0 1840 487" fill="none" xmlns="http://www.w3.org/2000/svg">
<path fill-rule="evenodd" clip-rule="evenodd" d="M14.8722 352.194L14.7841 345.236C16.8064 349.357 21.0441 352.194 25.9443 352.194H239.055C243.978 352.194 248.232 349.331 250.243 345.18L250.127 354.222L265 350.5L251.362 300.711C250.528 294.66 245.336 290 239.055 290H25.9443C19.5818 290 14.3364 294.783 13.6068 300.949L0.5 349L14.8722 352.194Z" fill="#CD0A64" fill-opacity="0.65"/>
<rect y="342.597" width="265" height="111" rx="9.18919" fill="#CD0A64"/>
<path d="M331.447 485.346C328.115 485.346 325.236 484.134 322.813 481.71C320.692 479.59 319.632 476.863 319.632 473.53V174.5C319.632 171.168 320.692 168.441 322.813 166.32C325.236 163.896 328.115 162.685 331.447 162.685H395.525C398.858 162.685 401.585 163.896 403.705 166.32C406.129 168.441 407.341 171.168 407.341 174.5V189.497C414.612 180.408 423.853 172.985 435.063 167.229C446.272 161.17 460.057 158.14 476.418 158.14C490.657 158.14 503.382 160.261 514.592 164.502C526.105 168.744 536.103 175.258 544.586 184.044C553.069 192.527 559.734 203.434 564.582 216.764C569.429 230.095 572.307 245.698 573.216 263.573C573.519 269.935 573.671 275.692 573.671 280.842C573.671 285.993 573.519 291.901 573.216 298.566C572.61 315.532 569.884 330.529 565.036 343.557C560.189 356.584 553.523 367.643 545.04 376.732C536.557 385.518 526.559 392.183 515.046 396.728C503.533 401.272 490.657 403.545 476.418 403.545C462.481 403.545 450.211 401.272 439.607 396.728C429.003 391.88 420.217 384.458 413.249 374.46V473.53C413.249 476.863 412.037 479.59 409.613 481.71C407.189 484.134 404.463 485.346 401.433 485.346H331.447ZM445.515 332.65C453.392 332.65 459.452 331.135 463.693 328.105C468.238 324.773 471.419 320.38 473.237 314.926C475.357 309.17 476.721 302.656 477.327 295.385C478.236 285.69 478.236 275.995 477.327 266.3C476.721 259.029 475.357 252.666 473.237 247.213C471.419 241.456 468.238 237.063 463.693 234.034C459.452 230.701 453.392 229.035 445.515 229.035C437.638 229.035 431.275 230.701 426.428 234.034C421.883 237.366 418.551 241.759 416.43 247.213C414.612 252.666 413.552 258.726 413.249 265.391C412.946 271.753 412.794 277.51 412.794 282.66C412.794 287.508 412.946 293.113 413.249 299.475C413.552 305.837 414.764 311.442 416.884 316.29C419.308 321.137 422.792 325.076 427.337 328.105C431.881 331.135 437.941 332.65 445.515 332.65ZM625.244 399C621.911 399 619.033 397.94 616.609 395.819C614.489 393.395 613.428 390.517 613.428 387.184V88.1543C613.428 84.8217 614.489 82.0949 616.609 79.9742C619.033 77.5504 621.911 76.3385 625.244 76.3385H692.957C695.987 76.3385 698.714 77.5504 701.138 79.9742C703.561 82.0949 704.773 84.8217 704.773 88.1543V387.184C704.773 390.517 703.561 393.395 701.138 395.819C698.714 397.94 695.987 399 692.957 399H625.244ZM797.339 485.346C794.613 485.346 792.189 484.437 790.068 482.619C788.25 480.801 787.342 478.529 787.342 475.803C787.342 475.197 787.342 474.439 787.342 473.53C787.644 472.621 787.947 471.561 788.25 470.349L824.607 384.458L736.897 177.682C736.291 175.864 735.988 174.349 735.988 173.137C736.594 170.41 737.806 167.987 739.624 165.866C741.745 163.745 744.169 162.685 746.895 162.685H810.973C815.518 162.685 818.699 163.896 820.517 166.32C822.637 168.441 824.152 170.562 825.061 172.683L869.597 290.84L915.497 172.683C916.709 170.259 918.375 167.987 920.496 165.866C922.617 163.745 925.798 162.685 930.04 162.685H993.663C996.087 162.685 998.359 163.745 1000.48 165.866C1002.6 167.684 1003.66 169.804 1003.66 172.228C1003.66 174.046 1003.36 175.864 1002.75 177.682L874.596 475.348C873.385 477.772 871.567 480.044 869.143 482.165C867.022 484.286 863.841 485.346 859.6 485.346H797.339ZM1044.19 399C1040.86 399 1037.98 397.94 1035.56 395.819C1033.44 393.395 1032.38 390.517 1032.38 387.184V174.5C1032.38 171.168 1033.44 168.441 1035.56 166.32C1037.98 163.896 1040.86 162.685 1044.19 162.685H1110.09C1113.42 162.685 1116.15 163.896 1118.27 166.32C1120.69 168.441 1121.9 171.168 1121.9 174.5V190.861C1129.78 181.772 1140.23 174.046 1153.26 167.684C1166.29 161.321 1181.13 158.14 1197.8 158.14C1214.16 158.14 1229 161.927 1242.33 169.501C1255.66 177.076 1266.42 188.437 1274.6 203.585C1282.78 218.734 1286.87 237.821 1286.87 260.846V387.184C1286.87 390.517 1285.66 393.395 1283.23 395.819C1280.81 397.94 1277.93 399 1274.6 399H1202.8C1199.46 399 1196.59 397.94 1194.16 395.819C1192.04 393.395 1190.98 390.517 1190.98 387.184V264.028C1190.98 252.818 1188.25 244.183 1182.8 238.124C1177.35 232.064 1169.62 229.035 1159.62 229.035C1149.63 229.035 1141.75 232.064 1135.99 238.124C1130.24 244.183 1127.36 252.818 1127.36 264.028V387.184C1127.36 390.517 1126.15 393.395 1123.72 395.819C1121.6 397.94 1118.87 399 1115.54 399H1044.19ZM1462.89 399C1442.29 399 1424.11 395.97 1408.35 389.911C1392.9 383.852 1380.78 374.005 1372 360.372C1363.52 346.435 1359.27 328.105 1359.27 305.383V232.216H1323.37C1320.04 232.216 1317.16 231.155 1314.74 229.035C1312.62 226.611 1311.56 223.733 1311.56 220.4V174.5C1311.56 171.168 1312.62 168.441 1314.74 166.32C1317.16 163.896 1320.04 162.685 1323.37 162.685H1359.27V88.1543C1359.27 84.8217 1360.33 82.0949 1362.46 79.9742C1364.88 77.5504 1367.76 76.3385 1371.09 76.3385H1436.99C1440.32 76.3385 1443.04 77.5504 1445.17 79.9742C1447.59 82.0949 1448.8 84.8217 1448.8 88.1543V162.685H1506.06C1509.39 162.685 1512.12 163.896 1514.24 166.32C1516.67 168.441 1517.88 171.168 1517.88 174.5V220.4C1517.88 223.733 1516.67 226.611 1514.24 229.035C1512.12 231.155 1509.39 232.216 1506.06 232.216H1448.8V297.657C1448.8 306.443 1450.62 313.411 1454.25 318.562C1457.89 323.409 1463.65 325.833 1471.52 325.833H1509.7C1513.03 325.833 1515.76 327.045 1517.88 329.469C1520.3 331.59 1521.51 334.316 1521.51 337.649V387.184C1521.51 390.517 1520.3 393.395 1517.88 395.819C1515.76 397.94 1513.03 399 1509.7 399H1462.89ZM1568.32 399C1564.99 399 1562.11 397.94 1559.69 395.819C1557.57 393.395 1556.51 390.517 1556.51 387.184V88.1543C1556.51 84.8217 1557.57 82.0949 1559.69 79.9742C1562.11 77.5504 1564.99 76.3385 1568.32 76.3385H1641.94C1644.97 76.3385 1647.7 77.5504 1650.12 79.9742C1652.55 82.0949 1653.76 84.8217 1653.76 88.1543V187.679C1661.64 178.59 1671.48 171.471 1683.3 166.32C1695.42 160.867 1709.05 158.14 1724.2 158.14C1740.56 158.14 1755.56 161.927 1769.19 169.501C1783.13 177.076 1794.19 188.437 1802.37 203.585C1810.85 218.734 1815.09 237.821 1815.09 260.846V387.184C1815.09 390.517 1813.88 393.395 1811.45 395.819C1809.03 397.94 1806.3 399 1803.27 399H1729.2C1725.87 399 1722.99 397.94 1720.56 395.819C1718.44 393.395 1717.38 390.517 1717.38 387.184V264.028C1717.38 252.818 1714.66 244.183 1709.2 238.124C1703.75 232.064 1696.02 229.035 1686.03 229.035C1676.03 229.035 1668.15 232.064 1662.39 238.124C1656.64 244.183 1653.76 252.818 1653.76 264.028V387.184C1653.76 390.517 1652.55 393.395 1650.12 395.819C1647.7 397.94 1644.97 399 1641.94 399H1568.32Z" fill="black"/>
</svg>
