<svg width="90" height="90" viewBox="0 0 90 90" fill="none" xmlns="http://www.w3.org/2000/svg">
<path d="M66.6228 17.0441H65.1798C65.1798 17.0441 65.6312 16.101 65.2365 15.6011C65.2365 15.6011 66.6228 15.5764 66.6228 17.0441Z" fill="black"/>
<path d="M71.6731 15.6011C72.0716 15.6011 72.3946 15.9241 72.3946 16.3226C72.3946 16.721 72.0716 17.044 71.6731 17.044C71.2747 17.044 70.9517 16.721 70.9517 16.3226C70.9517 15.9241 71.2747 15.6011 71.6731 15.6011Z" fill="black"/>
<path d="M74.559 15.6011C74.9575 15.6011 75.2805 15.9241 75.2805 16.3226C75.2805 16.721 74.9575 17.044 74.559 17.044C74.1605 17.044 73.8375 16.721 73.8375 16.3226C73.8375 15.9241 74.1605 15.6011 74.559 15.6011Z" fill="black"/>
<path d="M77.445 15.6011C77.8435 15.6011 78.1665 15.9241 78.1665 16.3226C78.1665 16.721 77.8435 17.044 77.445 17.044C77.0465 17.044 76.7235 16.721 76.7235 16.3226C76.7235 15.9241 77.0465 15.6011 77.445 15.6011Z" fill="black"/>
<path d="M66.6228 17.0444H65.1798V18.4874H66.6228V17.0444Z" fill="black"/>
<path d="M65.1798 18.4873H66.6228C66.6228 18.4873 66.1712 19.4305 66.566 19.9303C66.566 19.9303 65.1798 19.955 65.1798 18.4873Z" fill="black"/>
<path d="M68.7872 18.4873C69.1856 18.4873 69.5086 18.8103 69.5086 19.2088C69.5086 19.6073 69.1856 19.9303 68.7872 19.9303C68.3887 19.9303 68.0657 19.6073 68.0657 19.2088C68.0657 18.8103 68.3887 18.4873 68.7872 18.4873Z" fill="black"/>
<path d="M73.8376 19.9303H72.3947C72.3947 19.9303 72.8461 18.9872 72.4513 18.4873C72.4513 18.4873 73.8376 18.4626 73.8376 19.9303Z" fill="black"/>
<path d="M76.7234 18.4873V19.9303H75.2835H75.2805V19.5766C75.2805 18.9748 75.9265 18.4873 76.7234 18.4873Z" fill="black"/>
<path d="M78.1664 19.9303H76.7235V18.4903V18.4873H77.077C77.6789 18.4873 78.1664 19.1333 78.1664 19.9303Z" fill="black"/>
<path d="M68.0658 21.3727H66.6228C66.6228 21.3727 67.0742 20.4296 66.6795 19.9297C66.6795 19.9297 68.0658 19.905 68.0658 21.3727Z" fill="black"/>
<path d="M72.3945 19.9297V21.3727H70.9546H70.9517V21.019C70.9517 20.4172 71.5976 19.9297 72.3945 19.9297Z" fill="black"/>
<path d="M72.3947 21.3727V19.9297H73.8346H73.8376V20.2832C73.8376 20.8851 73.1916 21.3727 72.3947 21.3727Z" fill="black"/>
<path d="M75.2805 19.9297H76.7235V21.3696V21.3726L76.3699 21.3727C75.7681 21.3727 75.2805 20.7266 75.2805 19.9297Z" fill="black"/>
<path d="M78.1665 19.9297H76.7235V21.3727H78.1665V19.9297Z" fill="black"/>
<path d="M66.6227 21.373V22.816C66.6227 22.816 65.6795 22.3645 65.1797 22.7592C65.1797 22.7592 65.1549 21.373 66.6227 21.373Z" fill="black"/>
<path d="M66.6228 22.816V21.373H68.0628H68.0658V21.7266C68.0658 22.3285 67.4197 22.816 66.6228 22.816Z" fill="black"/>
<path d="M70.9517 21.373V22.816C70.9517 22.816 70.0085 22.3645 69.5087 22.7592C69.5087 22.7592 69.4839 21.373 70.9517 21.373Z" fill="black"/>
<path d="M72.3946 21.373H70.9517V22.816H72.3946V21.373Z" fill="black"/>
<path d="M74.559 21.373C74.9575 21.373 75.2805 21.6961 75.2805 22.0945C75.2805 22.493 74.9575 22.816 74.559 22.816C74.1605 22.816 73.8375 22.493 73.8375 22.0945C73.8375 21.6961 74.1605 21.373 74.559 21.373Z" fill="black"/>
<path d="M78.1665 21.373H76.7235V22.816H78.1665V21.373Z" fill="black"/>
<path d="M69.5086 24.2594H68.0657C68.0657 24.2594 68.5171 23.3163 68.1224 22.8164C68.1224 22.8164 69.5086 22.7917 69.5086 24.2594Z" fill="black"/>
<path d="M72.3946 22.8164H70.9517V24.2594H72.3946V22.8164Z" fill="black"/>
<path d="M72.3947 24.2594V22.8164C72.3947 22.8164 73.3377 23.2678 73.8376 22.8731C73.8376 22.8731 73.8624 24.2594 72.3947 24.2594Z" fill="black"/>
<path d="M78.1665 22.8164H76.7235V24.2594H78.1665V22.8164Z" fill="black"/>
<path d="M65.9013 24.2593C66.2998 24.2593 66.6228 24.5823 66.6228 24.9808C66.6228 25.3792 66.2998 25.7022 65.9013 25.7022C65.5028 25.7022 65.1798 25.3792 65.1798 24.9808C65.1798 24.5823 65.5028 24.2593 65.9013 24.2593Z" fill="black"/>
<path d="M69.5086 24.2593H68.0657V25.7022H69.5086V24.2593Z" fill="black"/>
<path d="M70.9514 24.2593H72.3944C72.3944 24.2593 71.9428 25.2025 72.3376 25.7023C72.3376 25.7023 70.9514 25.727 70.9514 24.2593Z" fill="black"/>
<path d="M74.559 24.2593C74.9575 24.2593 75.2805 24.5823 75.2805 24.9808C75.2805 25.3792 74.9575 25.7022 74.559 25.7022C74.1605 25.7022 73.8375 25.3792 73.8375 24.9808C73.8375 24.5823 74.1605 24.2593 74.559 24.2593Z" fill="black"/>
<path d="M78.1665 24.2593H76.7235V25.7022H78.1665V24.2593Z" fill="black"/>
<path d="M68.0658 25.7021V27.1451C68.0658 27.1451 67.1226 26.6936 66.6228 27.0883C66.6228 27.0883 66.598 25.7021 68.0658 25.7021Z" fill="black"/>
<path d="M69.5086 25.7021H68.0657V27.1451H69.5086V25.7021Z" fill="black"/>
<path d="M73.1161 25.7021C73.5146 25.7021 73.8376 26.0252 73.8376 26.4236C73.8376 26.8221 73.5146 27.1451 73.1161 27.1451C72.7177 27.1451 72.3947 26.8221 72.3947 26.4236C72.3947 26.0252 72.7177 25.7021 73.1161 25.7021Z" fill="black"/>
<path d="M76.7235 25.7021H78.1665C78.1665 25.7021 77.7149 26.6453 78.1097 27.1451C78.1097 27.1451 76.7235 27.1699 76.7235 25.7021Z" fill="black"/>
<path d="M55.0791 28.5875H53.6361C53.6361 28.5875 54.0876 27.6444 53.6928 27.1446C53.6928 27.1446 55.0791 27.1198 55.0791 28.5875Z" fill="black"/>
<path d="M59.4078 27.1445V28.5875C59.4078 28.5875 58.4647 28.1359 57.9649 28.5307C57.9649 28.5307 57.94 27.1445 59.4078 27.1445Z" fill="black"/>
<path d="M60.8509 27.1445H59.408V28.5875H60.8509V27.1445Z" fill="black"/>
<path d="M62.294 27.1445H60.8511V28.5875H62.294V27.1445Z" fill="black"/>
<path d="M63.7369 27.1445H62.2939V28.5875H63.7369V27.1445Z" fill="black"/>
<path d="M65.1798 27.1445H63.7368V28.5875H65.1798V27.1445Z" fill="black"/>
<path d="M65.1798 28.5875V27.1445C65.1798 27.1445 66.1229 27.596 66.6228 27.2012C66.6228 27.2012 66.6475 28.5875 65.1798 28.5875Z" fill="black"/>
<path d="M69.5086 27.1445H68.0657V28.5875H69.5086V27.1445Z" fill="black"/>
<path d="M70.9518 27.1445H69.5088V28.5875H70.9518V27.1445Z" fill="black"/>
<path d="M70.9517 28.5875V27.1445C70.9517 27.1445 71.8947 27.596 72.3946 27.2012C72.3946 27.2012 72.4194 28.5875 70.9517 28.5875Z" fill="black"/>
<path d="M75.2804 27.1445V28.5875H73.8405H73.8375V28.2339C73.8375 27.632 74.4835 27.1445 75.2804 27.1445Z" fill="black"/>
<path d="M76.7234 28.5875H75.2805V27.1475V27.1445H75.634C76.2359 27.1445 76.7234 27.7906 76.7234 28.5875Z" fill="black"/>
<path d="M79.6095 28.5875H78.1665C78.1665 28.5875 78.6179 27.6444 78.2232 27.1446C78.2232 27.1446 79.6095 27.1198 79.6095 28.5875Z" fill="black"/>
<path d="M83.9383 28.5875H82.4954C82.4954 28.5875 82.9468 27.6444 82.552 27.1446C82.552 27.1446 83.9383 27.1198 83.9383 28.5875Z" fill="black"/>
<path d="M86.8241 27.1445V28.5875H85.3842H85.3812V28.2339C85.3812 27.632 86.0272 27.1445 86.8241 27.1445Z" fill="black"/>
<path d="M88.2672 27.1445H86.8242V28.5875H88.2672V27.1445Z" fill="black"/>
<path d="M88.2672 28.5875V27.1445C88.2672 27.1445 89.2103 27.596 89.7102 27.2012C89.7102 27.2012 89.7349 28.5875 88.2672 28.5875Z" fill="black"/>
<path d="M53.636 28.5884H55.079C55.079 28.5884 54.6274 29.5316 55.0222 30.0314C55.0222 30.0314 53.636 30.0561 53.636 28.5884Z" fill="black"/>
<path d="M59.408 28.5884H60.8509V30.0283V30.0312L60.4973 30.0313C59.8956 30.0313 59.408 29.3853 59.408 28.5884Z" fill="black"/>
<path d="M62.294 28.5884H60.8511V30.0313H62.294V28.5884Z" fill="black"/>
<path d="M65.1798 28.5884H63.7368V30.0313H65.1798V28.5884Z" fill="black"/>
<path d="M68.0657 28.5884H69.5086V30.0283V30.0312L69.155 30.0313C68.5533 30.0313 68.0657 29.3853 68.0657 28.5884Z" fill="black"/>
<path d="M69.5088 30.0313V28.5884H70.9488H70.9518V28.9419C70.9518 29.5438 70.3057 30.0313 69.5088 30.0313Z" fill="black"/>
<path d="M73.8375 28.5884V30.0313H72.3976H72.3947V29.6777C72.3947 29.0759 73.0406 28.5884 73.8375 28.5884Z" fill="black"/>
<path d="M75.2805 28.5884H73.8375V30.0313H75.2805V28.5884Z" fill="black"/>
<path d="M76.7235 28.5884H75.2805V30.0313H76.7235V28.5884Z" fill="black"/>
<path d="M79.6095 28.5884H78.1665V30.0313H79.6095V28.5884Z" fill="black"/>
<path d="M82.4952 28.5884V30.0313H81.0554H81.0524V29.6777C81.0524 29.0759 81.6983 28.5884 82.4952 28.5884Z" fill="black"/>
<path d="M83.9383 28.5884H82.4954V30.0313H83.9383V28.5884Z" fill="black"/>
<path d="M85.3812 28.5884H83.9382V30.0313H85.3812V28.5884Z" fill="black"/>
<path d="M86.8242 28.5884H85.3812V30.0313H86.8242V28.5884Z" fill="black"/>
<path d="M86.8242 30.0313V28.5884H88.2642H88.2672V28.9419C88.2672 29.5438 87.6211 30.0313 86.8242 30.0313Z" fill="black"/>
<path d="M56.5221 31.4737H55.0791C55.0791 31.4737 55.5305 30.5307 55.1358 30.0308C55.1358 30.0308 56.5221 30.0061 56.5221 31.4737Z" fill="black"/>
<path d="M58.6864 30.0308C59.0849 30.0308 59.4079 30.3538 59.4079 30.7522C59.4079 31.1507 59.0849 31.4737 58.6864 31.4737C58.288 31.4737 57.965 31.1507 57.965 30.7522C57.965 30.3538 58.288 30.0308 58.6864 30.0308Z" fill="black"/>
<path d="M62.294 30.0308H60.8511V31.4737H62.294V30.0308Z" fill="black"/>
<path d="M63.7369 30.0308H62.2939V31.4737H63.7369V30.0308Z" fill="black"/>
<path d="M65.1798 30.0308H63.7368V31.4737H65.1798V30.0308Z" fill="black"/>
<path d="M72.3945 30.0308V31.4737H70.9546H70.9517V31.1201C70.9517 30.5183 71.5976 30.0308 72.3945 30.0308Z" fill="black"/>
<path d="M72.3947 31.4737V30.0308H73.8346H73.8376V30.3843C73.8376 30.9862 73.1916 31.4737 72.3947 31.4737Z" fill="black"/>
<path d="M76.7235 30.0308H75.2805V31.4737H76.7235V30.0308Z" fill="black"/>
<path d="M79.6095 30.0308H78.1665V31.4737H79.6095V30.0308Z" fill="black"/>
<path d="M81.0523 30.0308H79.6094V31.4737H81.0523V30.0308Z" fill="black"/>
<path d="M82.4953 30.0308H81.0524V31.4737H82.4953V30.0308Z" fill="black"/>
<path d="M83.9383 30.0308H82.4954V31.4737H83.9383V30.0308Z" fill="black"/>
<path d="M85.3812 30.0308H83.9382V31.4737H85.3812V30.0308Z" fill="black"/>
<path d="M89.7102 31.4737H88.2672C88.2672 31.4737 88.7187 30.5307 88.3239 30.0308C88.3239 30.0308 89.7102 30.0061 89.7102 31.4737Z" fill="black"/>
<path d="M56.5221 31.4736H55.0791V32.9166H56.5221V31.4736Z" fill="black"/>
<path d="M57.965 32.9166H56.5221V31.4766V31.4736H56.8756C57.4774 31.4736 57.965 32.1197 57.965 32.9166Z" fill="black"/>
<path d="M60.8506 31.4736V32.9166C60.8506 32.9166 59.9074 32.4651 59.4076 32.8598C59.4076 32.8598 59.3828 31.4736 60.8506 31.4736Z" fill="black"/>
<path d="M60.8511 32.9166V31.4736H62.2911H62.294V31.8272C62.294 32.4291 61.648 32.9166 60.8511 32.9166Z" fill="black"/>
<path d="M63.7368 31.4736H65.1798C65.1798 31.4736 64.7282 32.4168 65.123 32.9166C65.123 32.9166 63.7368 32.9413 63.7368 31.4736Z" fill="black"/>
<path d="M72.3946 31.4736H70.9517V32.9166H72.3946V31.4736Z" fill="black"/>
<path d="M75.2804 31.4736V32.9166C75.2804 32.9166 74.3372 32.4651 73.8374 32.8598C73.8374 32.8598 73.8126 31.4736 75.2804 31.4736Z" fill="black"/>
<path d="M75.2805 32.9166V31.4736H76.7205H76.7235V31.8272C76.7235 32.4291 76.0774 32.9166 75.2805 32.9166Z" fill="black"/>
<path d="M79.6095 31.4736H78.1665V32.9166H79.6095V31.4736Z" fill="black"/>
<path d="M83.9382 31.4736H85.3812V32.9135V32.9165L85.0276 32.9166C84.4259 32.9166 83.9382 32.2706 83.9382 31.4736Z" fill="black"/>
<path d="M86.8242 31.4736H85.3812V32.9166H86.8242V31.4736Z" fill="black"/>
<path d="M88.2672 31.4736H86.8242V32.9166H88.2672V31.4736Z" fill="black"/>
<path d="M89.7102 31.4736H88.2672V32.9166H89.7102V31.4736Z" fill="black"/>
<path d="M55.079 32.9165V34.3595H53.6391H53.6361V34.0058C53.6361 33.404 54.282 32.9165 55.079 32.9165Z" fill="black"/>
<path d="M56.5221 32.9165H55.0791V34.3595H56.5221V32.9165Z" fill="black"/>
<path d="M57.9651 32.9165H56.5221V34.3595H57.9651V32.9165Z" fill="black"/>
<path d="M59.4078 34.3595H57.965V32.9195V32.9165H58.3185C58.9203 32.9165 59.4078 33.5625 59.4078 34.3595Z" fill="black"/>
<path d="M63.0154 32.9165C63.4139 32.9165 63.7369 33.2395 63.7369 33.638C63.7369 34.0365 63.4139 34.3595 63.0154 34.3595C62.617 34.3595 62.2939 34.0365 62.2939 33.638C62.2939 33.2395 62.617 32.9165 63.0154 32.9165Z" fill="black"/>
<path d="M70.9517 32.9165V34.3595C70.9517 34.3595 70.0085 33.9079 69.5087 34.3027C69.5087 34.3027 69.4839 32.9165 70.9517 32.9165Z" fill="black"/>
<path d="M72.3946 32.9165H70.9517V34.3595H72.3946V32.9165Z" fill="black"/>
<path d="M78.1664 32.9165V34.3595H76.7265H76.7235V34.0058C76.7235 33.404 77.3694 32.9165 78.1664 32.9165Z" fill="black"/>
<path d="M79.6095 32.9165H78.1665V34.3595H79.6095V32.9165Z" fill="black"/>
<path d="M81.0523 32.9165H79.6094V34.3595H81.0523V32.9165Z" fill="black"/>
<path d="M81.0524 34.3595V32.9165C81.0524 32.9165 81.9955 33.3679 82.4953 32.9732C82.4953 32.9732 82.5201 34.3595 81.0524 34.3595Z" fill="black"/>
<path d="M88.2672 32.9165H89.7102C89.7102 32.9165 89.2586 33.8597 89.6534 34.3595C89.6534 34.3595 88.2672 34.3842 88.2672 32.9165Z" fill="black"/>
<path d="M55.0791 34.3599H53.6361V35.8028H55.0791V34.3599Z" fill="black"/>
<path d="M56.5221 34.3594H57.9651V35.7992V35.8022L57.6114 35.8023C57.0097 35.8023 56.5221 35.1563 56.5221 34.3594Z" fill="black"/>
<path d="M59.4079 34.3599H57.965V35.8028H59.4079V34.3599Z" fill="black"/>
<path d="M60.8508 35.8023H59.408V34.3624V34.3594H59.7615C60.3633 34.3594 60.8508 35.0054 60.8508 35.8023Z" fill="black"/>
<path d="M65.1797 34.3599V35.8028C65.1797 35.8028 64.2365 35.3513 63.7367 35.746C63.7367 35.746 63.7119 34.3599 65.1797 34.3599Z" fill="black"/>
<path d="M65.1798 35.8028V34.3599C65.1798 34.3599 66.1229 34.8113 66.6228 34.4166C66.6228 34.4166 66.6475 35.8028 65.1798 35.8028Z" fill="black"/>
<path d="M69.5086 35.8028H68.0657C68.0657 35.8028 68.5171 34.8598 68.1224 34.3599C68.1224 34.3599 69.5086 34.3352 69.5086 35.8028Z" fill="black"/>
<path d="M70.9514 34.3599H72.3944C72.3944 34.3599 71.9428 35.303 72.3376 35.8028C72.3376 35.8028 70.9514 35.8276 70.9514 34.3599Z" fill="black"/>
<path d="M75.2804 34.3594V35.8023H73.8405H73.8375V35.4487C73.8375 34.8469 74.4835 34.3594 75.2804 34.3594Z" fill="black"/>
<path d="M76.7235 34.3599H75.2805V35.8028H76.7235V34.3599Z" fill="black"/>
<path d="M76.7235 35.8028V34.3599H78.1635H78.1665V34.7134C78.1665 35.3153 77.5204 35.8028 76.7235 35.8028Z" fill="black"/>
<path d="M83.9383 35.8028H82.4954C82.4954 35.8028 82.9468 34.8598 82.552 34.3599C82.552 34.3599 83.9383 34.3352 83.9383 35.8028Z" fill="black"/>
<path d="M88.2672 35.8028H86.8242C86.8242 35.8028 87.2757 34.8598 86.8809 34.3599C86.8809 34.3599 88.2672 34.3352 88.2672 35.8028Z" fill="black"/>
<path d="M55.0791 35.8027H53.6361V37.2457H55.0791V35.8027Z" fill="black"/>
<path d="M55.0791 37.2457V35.8027C55.0791 35.8027 56.0222 36.2542 56.5221 35.8594C56.5221 35.8594 56.5468 37.2457 55.0791 37.2457Z" fill="black"/>
<path d="M59.4079 35.8027H57.965V37.2457H59.4079V35.8027Z" fill="black"/>
<path d="M59.408 37.2457V35.8027H60.8479H60.8509V36.1563C60.8509 36.7582 60.2049 37.2457 59.408 37.2457Z" fill="black"/>
<path d="M63.0154 35.8027C63.4139 35.8027 63.7369 36.1258 63.7369 36.5242C63.7369 36.9227 63.4139 37.2457 63.0154 37.2457C62.617 37.2457 62.2939 36.9227 62.2939 36.5242C62.2939 36.1258 62.617 35.8027 63.0154 35.8027Z" fill="black"/>
<path d="M68.0658 35.8027V37.2457C68.0658 37.2457 67.1226 36.7942 66.6228 37.1889C66.6228 37.1889 66.598 35.8027 68.0658 35.8027Z" fill="black"/>
<path d="M68.0657 37.2457V35.8027H69.5057H69.5086V36.1563C69.5086 36.7582 68.8626 37.2457 68.0657 37.2457Z" fill="black"/>
<path d="M73.8375 35.8027V37.2457C73.8375 37.2457 72.8943 36.7942 72.3946 37.1889C72.3946 37.1889 72.3697 35.8027 73.8375 35.8027Z" fill="black"/>
<path d="M75.2805 35.8027H73.8375V37.2457H75.2805V35.8027Z" fill="black"/>
<path d="M75.2805 37.2457V35.8027H76.7205H76.7235V36.1563C76.7235 36.7582 76.0774 37.2457 75.2805 37.2457Z" fill="black"/>
<path d="M78.888 35.8027C79.2865 35.8027 79.6095 36.1258 79.6095 36.5242C79.6095 36.9227 79.2865 37.2457 78.888 37.2457C78.4895 37.2457 78.1665 36.9227 78.1665 36.5242C78.1665 36.1258 78.4895 35.8027 78.888 35.8027Z" fill="black"/>
<path d="M82.4954 35.8027H83.9383V37.2426V37.2456L83.5847 37.2457C82.983 37.2457 82.4954 36.5997 82.4954 35.8027Z" fill="black"/>
<path d="M85.3812 35.8027H83.9382V37.2457H85.3812V35.8027Z" fill="black"/>
<path d="M86.8242 35.8027H85.3812V37.2457H86.8242V35.8027Z" fill="black"/>
<path d="M88.2672 35.8027H86.8242V37.2457H88.2672V35.8027Z" fill="black"/>
<path d="M89.7101 37.2457H88.2672V35.8057V35.8027H88.6207C89.2226 35.8027 89.7101 36.4488 89.7101 37.2457Z" fill="black"/>
<path d="M55.0791 37.2456H53.6361V38.6886H55.0791V37.2456Z" fill="black"/>
<path d="M57.965 37.2456V38.6886H56.5251H56.5221V38.3349C56.5221 37.7331 57.168 37.2456 57.965 37.2456Z" fill="black"/>
<path d="M59.4079 37.2456H57.965V38.6886H59.4079V37.2456Z" fill="black"/>
<path d="M62.294 38.6886H60.8511C60.8511 38.6886 61.3025 37.7455 60.9078 37.2456C60.9078 37.2456 62.294 37.2209 62.294 38.6886Z" fill="black"/>
<path d="M66.6228 38.6886H65.1798C65.1798 38.6886 65.6312 37.7455 65.2365 37.2456C65.2365 37.2456 66.6228 37.2209 66.6228 38.6886Z" fill="black"/>
<path d="M70.2303 37.2456C70.6288 37.2456 70.9518 37.5686 70.9518 37.9671C70.9518 38.3656 70.6288 38.6886 70.2303 38.6886C69.8318 38.6886 69.5088 38.3656 69.5088 37.9671C69.5088 37.5686 69.8318 37.2456 70.2303 37.2456Z" fill="black"/>
<path d="M78.1665 38.6886H76.7235C76.7235 38.6886 77.175 37.7455 76.7802 37.2456C76.7802 37.2456 78.1665 37.2209 78.1665 38.6886Z" fill="black"/>
<path d="M82.4953 38.6886H81.0524C81.0524 38.6886 81.5038 37.7455 81.1091 37.2456C81.1091 37.2456 82.4953 37.2209 82.4953 38.6886Z" fill="black"/>
<path d="M83.9382 37.2456H85.3812V38.6855V38.6885L85.0276 38.6886C84.4259 38.6886 83.9382 38.0425 83.9382 37.2456Z" fill="black"/>
<path d="M86.8242 37.2456H85.3812V38.6886H86.8242V37.2456Z" fill="black"/>
<path d="M88.2672 37.2456H89.7102C89.7102 37.2456 89.2586 38.1888 89.6534 38.6886C89.6534 38.6886 88.2672 38.7133 88.2672 37.2456Z" fill="black"/>
<path d="M53.636 38.6885H55.079C55.079 38.6885 54.6274 39.6317 55.0222 40.1314C55.0222 40.1314 53.636 40.1562 53.636 38.6885Z" fill="black"/>
<path d="M56.5221 38.6885H57.9651V40.1284V40.1313L57.6114 40.1314C57.0097 40.1314 56.5221 39.4854 56.5221 38.6885Z" fill="black"/>
<path d="M59.4079 38.6885H57.965V40.1314H59.4079V38.6885Z" fill="black"/>
<path d="M60.8509 38.6885H59.408V40.1314H60.8509V38.6885Z" fill="black"/>
<path d="M62.294 38.6885H60.8511V40.1314H62.294V38.6885Z" fill="black"/>
<path d="M62.2939 40.1314V38.6885C62.2939 38.6885 63.237 39.1399 63.7369 38.7452C63.7369 38.7452 63.7616 40.1314 62.2939 40.1314Z" fill="black"/>
<path d="M66.6228 38.6885H65.1798V40.1314H66.6228V38.6885Z" fill="black"/>
<path d="M66.6228 40.1314V38.6885C66.6228 38.6885 67.5659 39.1399 68.0658 38.7452C68.0658 38.7452 68.0905 40.1314 66.6228 40.1314Z" fill="black"/>
<path d="M72.3947 38.6885V40.1314C72.3947 40.1314 71.4515 39.6799 70.9517 40.0746C70.9517 40.0746 70.9268 38.6885 72.3947 38.6885Z" fill="black"/>
<path d="M73.8376 38.6885H72.3947V40.1314H73.8376V38.6885Z" fill="black"/>
<path d="M73.8375 40.1314V38.6885C73.8375 38.6885 74.7806 39.1399 75.2805 38.7452C75.2805 38.7452 75.3052 40.1314 73.8375 40.1314Z" fill="black"/>
<path d="M78.1665 38.6885H76.7235V40.1314H78.1665V38.6885Z" fill="black"/>
<path d="M79.6095 38.6885H78.1665V40.1314H79.6095V38.6885Z" fill="black"/>
<path d="M81.0523 38.6885H79.6094V40.1314H81.0523V38.6885Z" fill="black"/>
<path d="M82.4953 38.6885H81.0524V40.1314H82.4953V38.6885Z" fill="black"/>
<path d="M83.9382 40.1314H82.4954V38.6915V38.6885H82.8489C83.4507 38.6885 83.9382 39.3345 83.9382 40.1314Z" fill="black"/>
<path d="M86.8242 38.6885H85.3812V40.1314H86.8242V38.6885Z" fill="black"/>
<path d="M88.2671 40.1314H86.8242V38.6915V38.6885H87.1777C87.7796 38.6885 88.2671 39.3345 88.2671 40.1314Z" fill="black"/>
<path d="M66.6228 40.1318H65.1798V41.5748H66.6228V40.1318Z" fill="black"/>
<path d="M68.7872 40.1318C69.1856 40.1318 69.5086 40.4549 69.5086 40.8533C69.5086 41.2518 69.1856 41.5748 68.7872 41.5748C68.3887 41.5748 68.0657 41.2518 68.0657 40.8533C68.0657 40.4549 68.3887 40.1318 68.7872 40.1318Z" fill="black"/>
<path d="M72.3945 40.1318H73.8375C73.8375 40.1318 73.3859 41.075 73.7807 41.5748C73.7807 41.5748 72.3945 41.5995 72.3945 40.1318Z" fill="black"/>
<path d="M76.7235 40.1318V41.5748C76.7235 41.5748 75.7803 41.1232 75.2805 41.518C75.2805 41.518 75.2557 40.1318 76.7235 40.1318Z" fill="black"/>
<path d="M78.1665 40.1318H76.7235V41.5748H78.1665V40.1318Z" fill="black"/>
<path d="M83.9383 40.1318H82.4954V41.5748H83.9383V40.1318Z" fill="black"/>
<path d="M85.3812 40.1318H86.8242V41.5717V41.5747L86.4706 41.5748C85.8688 41.5748 85.3812 40.9288 85.3812 40.1318Z" fill="black"/>
<path d="M86.8242 41.5748V40.1318H88.2642H88.2672V40.4854C88.2672 41.0873 87.6211 41.5748 86.8242 41.5748Z" fill="black"/>
<path d="M66.6228 41.5747H65.1798V43.0177H66.6228V41.5747Z" fill="black"/>
<path d="M66.6228 43.0177V41.5747C66.6228 41.5747 67.5659 42.0262 68.0658 41.6314C68.0658 41.6314 68.0905 43.0177 66.6228 43.0177Z" fill="black"/>
<path d="M70.2303 41.5747C70.6288 41.5747 70.9518 41.8977 70.9518 42.2962C70.9518 42.6947 70.6288 43.0177 70.2303 43.0177C69.8318 43.0177 69.5088 42.6947 69.5088 42.2962C69.5088 41.8977 69.8318 41.5747 70.2303 41.5747Z" fill="black"/>
<path d="M78.1665 41.5747H76.7235V43.0177H78.1665V41.5747Z" fill="black"/>
<path d="M80.3309 41.5747C80.7293 41.5747 81.0523 41.8977 81.0523 42.2962C81.0523 42.6947 80.7293 43.0177 80.3309 43.0177C79.9324 43.0177 79.6094 42.6947 79.6094 42.2962C79.6094 41.8977 79.9324 41.5747 80.3309 41.5747Z" fill="black"/>
<path d="M83.9383 41.5747H82.4954V43.0177H83.9383V41.5747Z" fill="black"/>
<path d="M88.9887 41.5747C89.3872 41.5747 89.7102 41.8977 89.7102 42.2962C89.7102 42.6947 89.3872 43.0177 88.9887 43.0177C88.5902 43.0177 88.2672 42.6947 88.2672 42.2962C88.2672 41.8977 88.5902 41.5747 88.9887 41.5747Z" fill="black"/>
<path d="M66.6228 43.0176H65.1798V44.4605H66.6228V43.0176Z" fill="black"/>
<path d="M68.7872 43.0176C69.1856 43.0176 69.5086 43.3406 69.5086 43.7391C69.5086 44.1375 69.1856 44.4605 68.7872 44.4605C68.3887 44.4605 68.0657 44.1375 68.0657 43.7391C68.0657 43.3406 68.3887 43.0176 68.7872 43.0176Z" fill="black"/>
<path d="M73.1161 43.0176C73.5146 43.0176 73.8376 43.3406 73.8376 43.7391C73.8376 44.1375 73.5146 44.4605 73.1161 44.4605C72.7177 44.4605 72.3947 44.1375 72.3947 43.7391C72.3947 43.3406 72.7177 43.0176 73.1161 43.0176Z" fill="black"/>
<path d="M76.7234 43.0176V44.4606H75.2835H75.2805V44.1069C75.2805 43.5051 75.9265 43.0176 76.7234 43.0176Z" fill="black"/>
<path d="M78.1665 43.0176H76.7235V44.4605H78.1665V43.0176Z" fill="black"/>
<path d="M83.9383 43.0176H82.4954V44.4605H83.9383V43.0176Z" fill="black"/>
<path d="M66.6228 44.46H65.1798V45.9029H66.6228V44.46Z" fill="black"/>
<path d="M66.6228 45.9029V44.46C66.6228 44.46 67.5659 44.9114 68.0658 44.5166C68.0658 44.5166 68.0905 45.9029 66.6228 45.9029Z" fill="black"/>
<path d="M70.9516 44.46V45.9029H69.5118H69.5088V45.5493C69.5088 44.9475 70.1547 44.46 70.9516 44.46Z" fill="black"/>
<path d="M70.9517 45.9029V44.46C70.9517 44.46 71.8947 44.9114 72.3946 44.5166C72.3946 44.5166 72.4194 45.9029 70.9517 45.9029Z" fill="black"/>
<path d="M75.2804 44.46V45.9029H73.8405H73.8375V45.5493C73.8375 44.9475 74.4835 44.46 75.2804 44.46Z" fill="black"/>
<path d="M76.7235 44.46H75.2805V45.9029H76.7235V44.46Z" fill="black"/>
<path d="M78.1665 44.46H76.7235V45.9029H78.1665V44.46Z" fill="black"/>
<path d="M79.6095 44.46H78.1665V45.9029H79.6095V44.46Z" fill="black"/>
<path d="M81.0523 44.46H79.6094V45.9029H81.0523V44.46Z" fill="black"/>
<path d="M82.4953 44.46H81.0524V45.9029H82.4953V44.46Z" fill="black"/>
<path d="M82.4954 45.9029V44.46H83.9354H83.9383V44.8135C83.9383 45.4154 83.2923 45.9029 82.4954 45.9029Z" fill="black"/>
<path d="M65.1798 45.9038H66.6228C66.6228 45.9038 66.1712 46.847 66.566 47.3468C66.566 47.3468 65.1798 47.3715 65.1798 45.9038Z" fill="black"/>
<path d="M70.9518 45.9038H69.5088V47.3468H70.9518V45.9038Z" fill="black"/>
<path d="M73.8375 45.9038H75.2805C75.2805 45.9038 74.8289 46.847 75.2237 47.3468C75.2237 47.3468 73.8375 47.3715 73.8375 45.9038Z" fill="black"/>
<path d="M78.1665 45.9038H76.7235V47.3468H78.1665V45.9038Z" fill="black"/>
<path d="M79.6095 45.9038H78.1665V47.3468H79.6095V45.9038Z" fill="black"/>
<path d="M79.6094 47.3468V45.9038H81.0494H81.0523V46.2573C81.0523 46.8593 80.4063 47.3468 79.6094 47.3468Z" fill="black"/>
<path d="M88.2671 45.9038V47.3468H86.8272H86.8242V46.9932C86.8242 46.3913 87.4701 45.9038 88.2671 45.9038Z" fill="black"/>
<path d="M89.7101 47.3468H88.2672V45.9068V45.9038H88.6207C89.2226 45.9038 89.7101 46.5498 89.7101 47.3468Z" fill="black"/>
<path d="M68.0658 48.7897H66.6228C66.6228 48.7897 67.0742 47.8466 66.6795 47.3467C66.6795 47.3467 68.0658 47.322 68.0658 48.7897Z" fill="black"/>
<path d="M70.9518 47.3467H69.5088V48.7897H70.9518V47.3467Z" fill="black"/>
<path d="M76.7235 47.3467H78.1665C78.1665 47.3467 77.7149 48.2899 78.1097 48.7897C78.1097 48.7897 76.7235 48.8144 76.7235 47.3467Z" fill="black"/>
<path d="M83.9382 47.3462V48.7892H82.4984H82.4954V48.4355C82.4954 47.8337 83.1413 47.3462 83.9382 47.3462Z" fill="black"/>
<path d="M85.3812 47.3467H83.9382V48.7897H85.3812V47.3467Z" fill="black"/>
<path d="M86.8242 47.3467H85.3812V48.7897H86.8242V47.3467Z" fill="black"/>
<path d="M88.2672 47.3467H86.8242V48.7897H88.2672V47.3467Z" fill="black"/>
<path d="M89.7102 47.3467H88.2672V48.7897H89.7102V47.3467Z" fill="black"/>
<path d="M66.6228 48.7891H68.0658V50.2289V50.2319L67.7121 50.232C67.1104 50.232 66.6228 49.586 66.6228 48.7891Z" fill="black"/>
<path d="M69.5086 48.7891H68.0657V50.232H69.5086V48.7891Z" fill="black"/>
<path d="M70.9518 48.7891H69.5088V50.232H70.9518V48.7891Z" fill="black"/>
<path d="M79.6094 48.7891V50.232H78.1695H78.1665V49.8784C78.1665 49.2766 78.8124 48.7891 79.6094 48.7891Z" fill="black"/>
<path d="M81.0523 48.7891H79.6094V50.232H81.0523V48.7891Z" fill="black"/>
<path d="M82.4953 48.7891H81.0524V50.232H82.4953V48.7891Z" fill="black"/>
<path d="M82.4954 50.232V48.7891H83.9354H83.9383V49.1426C83.9383 49.7445 83.2923 50.232 82.4954 50.232Z" fill="black"/>
<path d="M85.3812 48.7891H86.8242V50.2289V50.2319L86.4706 50.232C85.8688 50.232 85.3812 49.586 85.3812 48.7891Z" fill="black"/>
<path d="M88.2672 48.7891H86.8242V50.232H88.2672V48.7891Z" fill="black"/>
<path d="M89.7102 48.7891H88.2672V50.232H89.7102V48.7891Z" fill="black"/>
<path d="M65.9013 50.2319C66.2998 50.2319 66.6228 50.555 66.6228 50.9534C66.6228 51.3519 66.2998 51.6749 65.9013 51.6749C65.5028 51.6749 65.1798 51.3519 65.1798 50.9534C65.1798 50.555 65.5028 50.2319 65.9013 50.2319Z" fill="black"/>
<path d="M69.5088 50.2319H70.9518V51.6718V51.6748L70.5981 51.6749C69.9964 51.6749 69.5088 51.0289 69.5088 50.2319Z" fill="black"/>
<path d="M70.9517 51.6749V50.2319C70.9517 50.2319 71.8947 50.6834 72.3946 50.2886C72.3946 50.2886 72.4194 51.6749 70.9517 51.6749Z" fill="black"/>
<path d="M78.1665 50.2319V51.6749C78.1665 51.6749 77.2233 51.2233 76.7235 51.6181C76.7235 51.6181 76.6987 50.2319 78.1665 50.2319Z" fill="black"/>
<path d="M79.6095 50.2319H78.1665V51.6749H79.6095V50.2319Z" fill="black"/>
<path d="M79.6094 51.6749V50.2319H81.0494H81.0523V50.5855C81.0523 51.1874 80.4063 51.6749 79.6094 51.6749Z" fill="black"/>
<path d="M84.6597 50.2319C85.0582 50.2319 85.3812 50.555 85.3812 50.9534C85.3812 51.3519 85.0582 51.6749 84.6597 51.6749C84.2613 51.6749 83.9382 51.3519 83.9382 50.9534C83.9382 50.555 84.2613 50.2319 84.6597 50.2319Z" fill="black"/>
<path d="M88.2672 50.2319H89.7102C89.7102 50.2319 89.2586 51.1751 89.6534 51.6749C89.6534 51.6749 88.2672 51.6996 88.2672 50.2319Z" fill="black"/>
<path d="M60.3277 25.7017H57.048C55.1673 25.7017 53.638 24.1542 53.638 22.2533L53.636 15.6009H60.3277C62.2075 15.6009 63.7368 17.1483 63.7368 19.0493V22.2533V25.7017H60.3277ZM62.2216 19.0493C62.2216 17.9833 61.3721 17.116 60.3277 17.116H55.1515L55.1531 22.2528C55.1531 23.3193 56.0032 24.1865 57.048 24.1865H62.2216V19.0493Z" fill="black"/>
<path d="M86.3011 15.6011H83.0214C81.1406 15.6011 79.6114 17.1485 79.6114 19.0495L79.6094 25.7018H86.3011C88.1809 25.7018 89.7101 24.1544 89.7101 22.2534V19.0495V15.6011H86.3011ZM88.195 22.2534C88.195 23.3195 87.3454 24.1867 86.3011 24.1867H81.1249L81.1265 19.05C81.1265 17.9834 81.9766 17.1162 83.0214 17.1162H88.195V22.2534Z" fill="black"/>
<path d="M60.3279 41.5747H57.0481C55.1674 41.5747 53.6381 43.1221 53.6381 45.0231L53.6361 51.6755H60.3279C62.2076 51.6755 63.7369 50.128 63.7369 48.2271V45.0231V41.5747H60.3279ZM62.2218 48.2271C62.2218 49.2931 61.3722 50.1603 60.3279 50.1603H55.1516L55.1532 45.0236C55.1532 43.9571 56.0033 43.0898 57.0481 43.0898H62.2218V48.2271Z" fill="black"/>
<path d="M58.6441 22.7313C59.8161 22.7313 60.7661 21.7813 60.7661 20.6093C60.7661 19.4374 59.8161 18.4873 58.6441 18.4873C57.4721 18.4873 56.5221 19.4374 56.5221 20.6093C56.5221 21.7813 57.4721 22.7313 58.6441 22.7313Z" fill="black"/>
<path d="M84.6174 22.7313C85.7893 22.7313 86.7394 21.7813 86.7394 20.6093C86.7394 19.4374 85.7893 18.4873 84.6174 18.4873C83.4454 18.4873 82.4954 19.4374 82.4954 20.6093C82.4954 21.7813 83.4454 22.7313 84.6174 22.7313Z" fill="black"/>
<path d="M58.6441 48.704C59.8161 48.704 60.7661 47.7539 60.7661 46.582C60.7661 45.41 59.8161 44.46 58.6441 44.46C57.4721 44.46 56.5221 45.41 56.5221 46.582C56.5221 47.7539 57.4721 48.704 58.6441 48.704Z" fill="black"/>
<path d="M53.0015 6.73937L23.3663 1.60461C18.2543 0.718866 13.3873 4.14443 12.5025 9.25097L1.60293 72.1576C0.718141 77.2641 4.14898 82.1274 9.26105 83.0132L38.8962 88.1479C44.0083 89.0337 48.8753 85.6081 49.7601 80.5015L60.6596 17.5949C61.5444 12.4884 58.1136 7.62511 53.0015 6.73937ZM24.7198 81.8801C21.6451 81.3474 19.5928 78.4381 20.1249 75.3668C20.6571 72.2955 23.5686 70.2462 26.6432 70.779C29.7179 71.3117 31.7703 74.221 31.2381 77.2923C30.706 80.3636 27.7944 82.4129 24.7198 81.8801ZM43.9542 69.9669L10.6146 64.1903L19.5907 12.3849L52.9303 18.1615L43.9542 69.9669Z" fill="black"/>
<path d="M30.7031 26.3533L29.6941 26.1785C29.6941 26.1785 30.124 25.5737 29.9085 25.1763C29.9085 25.1763 30.8809 25.327 30.7031 26.3533Z" fill="black"/>
<path d="M34.4094 25.9566C34.6881 26.0048 34.8748 26.2698 34.8265 26.5485C34.7782 26.8271 34.5132 27.0138 34.2346 26.9656C33.956 26.9173 33.7692 26.6523 33.8175 26.3736C33.8658 26.095 34.1308 25.9083 34.4094 25.9566Z" fill="black"/>
<path d="M36.4275 26.3067C36.7061 26.3549 36.8928 26.6199 36.8446 26.8986C36.7963 27.1772 36.5313 27.3639 36.2526 27.3157C35.974 27.2674 35.7873 27.0024 35.8356 26.7237C35.8838 26.4451 36.1488 26.2584 36.4275 26.3067Z" fill="black"/>
<path d="M38.4453 26.6558C38.7239 26.7041 38.9107 26.9691 38.8624 27.2477C38.8141 27.5263 38.5491 27.7131 38.2705 27.6648C37.9918 27.6165 37.8051 27.3515 37.8534 27.0729C37.9017 26.7942 38.1667 26.6075 38.4453 26.6558Z" fill="black"/>
<path d="M30.7031 26.3535L29.6941 26.1787L29.5193 27.1877L30.5283 27.3625L30.7031 26.3535Z" fill="black"/>
<path d="M29.5193 27.188L30.5283 27.3628C30.5283 27.3628 30.0983 27.9676 30.3138 28.3649C30.3138 28.3649 29.3415 28.2143 29.5193 27.188Z" fill="black"/>
<path d="M32.0417 27.6245C32.3204 27.6728 32.5071 27.9378 32.4588 28.2164C32.4105 28.4951 32.1456 28.6818 31.8669 28.6335C31.5883 28.5853 31.4015 28.3203 31.4498 28.0416C31.4981 27.763 31.7631 27.5762 32.0417 27.6245Z" fill="black"/>
<path d="M35.3985 29.2459L34.3895 29.071C34.3895 29.071 34.8194 28.4663 34.604 28.0689C34.604 28.0689 35.5763 28.2196 35.3985 29.2459Z" fill="black"/>
<path d="M37.5912 28.5864L37.4164 29.5954L36.4095 29.421L36.4074 29.4206L36.4503 29.1733C36.5232 28.7525 37.034 28.4899 37.5912 28.5864Z" fill="black"/>
<path d="M38.4254 29.7702L37.4165 29.5954L37.5909 28.5885L37.5913 28.5864L37.8385 28.6293C38.2593 28.7022 38.522 29.213 38.4254 29.7702Z" fill="black"/>
<path d="M31.1876 29.5554L30.1786 29.3806C30.1786 29.3806 30.6085 28.7758 30.393 28.3785C30.393 28.3785 31.3654 28.5291 31.1876 29.5554Z" fill="black"/>
<path d="M34.3894 29.0708L34.2146 30.0798L33.2078 29.9054L33.2057 29.905L33.2485 29.6577C33.3214 29.2369 33.8322 28.9743 34.3894 29.0708Z" fill="black"/>
<path d="M34.2147 30.0798L34.3895 29.0708L35.3964 29.2453L35.3985 29.2456L35.3557 29.4928C35.2828 29.9137 34.772 30.1764 34.2147 30.0798Z" fill="black"/>
<path d="M36.4076 29.4204L37.4166 29.5952L37.2421 30.6021L37.2418 30.6042L36.9945 30.5614C36.5737 30.4885 36.311 29.9777 36.4076 29.4204Z" fill="black"/>
<path d="M38.4254 29.77L37.4164 29.5952L37.2416 30.6042L38.2506 30.779L38.4254 29.77Z" fill="black"/>
<path d="M30.1786 29.3804L30.0038 30.3894C30.0038 30.3894 29.3989 29.9594 29.0016 30.1749C29.0016 30.1749 29.1522 29.2026 30.1786 29.3804Z" fill="black"/>
<path d="M30.0038 30.3894L30.1786 29.3804L31.1855 29.5548L31.1876 29.5552L31.1448 29.8024C31.0718 30.2233 30.561 30.4859 30.0038 30.3894Z" fill="black"/>
<path d="M33.2057 29.9048L33.0309 30.9138C33.0309 30.9138 32.426 30.4838 32.0287 30.6993C32.0287 30.6993 32.1793 29.727 33.2057 29.9048Z" fill="black"/>
<path d="M34.2147 30.0791L33.2057 29.9043L33.0309 30.9133L34.0399 31.0881L34.2147 30.0791Z" fill="black"/>
<path d="M35.7283 30.3423C36.0069 30.3906 36.1936 30.6556 36.1453 30.9342C36.0971 31.2129 35.8321 31.3996 35.5534 31.3513C35.2748 31.303 35.0881 31.038 35.1363 30.7594C35.1846 30.4808 35.4496 30.294 35.7283 30.3423Z" fill="black"/>
<path d="M38.2507 30.7788L37.2417 30.604L37.0669 31.613L38.0759 31.7878L38.2507 30.7788Z" fill="black"/>
<path d="M31.8468 31.7488L30.8377 31.574C30.8377 31.574 31.2677 30.9692 31.0522 30.5718C31.0522 30.5718 32.0246 30.7225 31.8468 31.7488Z" fill="black"/>
<path d="M34.0398 31.0894L33.0308 30.9146L32.8559 31.9236L33.8649 32.0984L34.0398 31.0894Z" fill="black"/>
<path d="M33.8648 32.0988L34.0397 31.0898C34.0397 31.0898 34.6444 31.5198 35.0418 31.3043C35.0418 31.3043 34.8912 32.2767 33.8648 32.0988Z" fill="black"/>
<path d="M38.0757 31.7891L37.0667 31.6143L36.8918 32.6233L37.9008 32.7981L38.0757 31.7891Z" fill="black"/>
<path d="M29.3244 31.312C29.6031 31.3603 29.7898 31.6253 29.7415 31.9039C29.6933 32.1826 29.4283 32.3693 29.1496 32.321C28.871 32.2727 28.6843 32.0078 28.7325 31.7291C28.7808 31.4505 29.0458 31.2637 29.3244 31.312Z" fill="black"/>
<path d="M31.8467 31.749L30.8376 31.5742L30.6628 32.5832L31.6718 32.758L31.8467 31.749Z" fill="black"/>
<path d="M32.8557 31.9233L33.8647 32.0982C33.8647 32.0982 33.4347 32.703 33.6502 33.1003C33.6502 33.1003 32.6779 32.9496 32.8557 31.9233Z" fill="black"/>
<path d="M35.3783 32.3609C35.6569 32.4091 35.8436 32.6741 35.7954 32.9528C35.7471 33.2314 35.4821 33.4181 35.2035 33.3699C34.9248 33.3216 34.7381 33.0566 34.7864 32.7779C34.8346 32.4993 35.0997 32.3126 35.3783 32.3609Z" fill="black"/>
<path d="M37.9009 32.7979L36.8918 32.623L36.717 33.6321L37.726 33.8069L37.9009 32.7979Z" fill="black"/>
<path d="M30.6631 32.583L30.4882 33.592C30.4882 33.592 29.8834 33.162 29.4861 33.3775C29.4861 33.3775 29.6367 32.4052 30.6631 32.583Z" fill="black"/>
<path d="M31.672 32.7578L30.663 32.583L30.4881 33.592L31.4971 33.7668L31.672 32.7578Z" fill="black"/>
<path d="M34.1946 33.1948C34.4732 33.2431 34.6599 33.5081 34.6117 33.7868C34.5634 34.0654 34.2984 34.2521 34.0197 34.2038C33.7411 34.1556 33.5544 33.8906 33.6027 33.6119C33.6509 33.3333 33.9159 33.1466 34.1946 33.1948Z" fill="black"/>
<path d="M36.7172 33.6323L37.7262 33.8072C37.7262 33.8072 37.2962 34.412 37.5116 34.8093C37.5116 34.8093 36.5393 34.6586 36.7172 33.6323Z" fill="black"/>
<path d="M21.2324 33.0271L20.2234 32.8523C20.2234 32.8523 20.6533 32.2475 20.4378 31.8501C20.4378 31.8501 21.4102 32.0008 21.2324 33.0271Z" fill="black"/>
<path d="M24.4342 32.5425L24.2594 33.5515C24.2594 33.5515 23.6545 33.1215 23.2572 33.337C23.2572 33.337 23.4078 32.3647 24.4342 32.5425Z" fill="black"/>
<path d="M25.4432 32.7178L24.4342 32.543L24.2594 33.552L25.2684 33.7268L25.4432 32.7178Z" fill="black"/>
<path d="M26.4522 32.8926L25.4432 32.7178L25.2684 33.7268L26.2774 33.9016L26.4522 32.8926Z" fill="black"/>
<path d="M27.4613 33.0669L26.4523 32.8921L26.2774 33.9011L27.2865 34.0759L27.4613 33.0669Z" fill="black"/>
<path d="M28.4702 33.2422L27.4612 33.0674L27.2864 34.0764L28.2954 34.2512L28.4702 33.2422Z" fill="black"/>
<path d="M28.2955 34.2512L28.4703 33.2422C28.4703 33.2422 29.0751 33.6721 29.4725 33.4567C29.4725 33.4567 29.3218 34.429 28.2955 34.2512Z" fill="black"/>
<path d="M31.4972 33.7661L30.4882 33.5913L30.3133 34.6003L31.3223 34.7751L31.4972 33.7661Z" fill="black"/>
<path d="M32.5063 33.9414L31.4973 33.7666L31.3225 34.7756L32.3315 34.9504L32.5063 33.9414Z" fill="black"/>
<path d="M32.3314 34.9509L32.5062 33.9419C32.5062 33.9419 33.111 34.3718 33.5084 34.1564C33.5084 34.1564 33.3577 35.1287 32.3314 34.9509Z" fill="black"/>
<path d="M35.5332 34.4658L35.3584 35.4748L34.3516 35.3004L34.3495 35.3L34.3923 35.0527C34.4652 34.6319 34.976 34.3693 35.5332 34.4658Z" fill="black"/>
<path d="M36.3674 35.6501L35.3585 35.4753L35.533 34.4684L35.5333 34.4663L35.7805 34.5091C36.2014 34.5821 36.464 35.0929 36.3674 35.6501Z" fill="black"/>
<path d="M38.3853 35.9993L37.3763 35.8245C37.3763 35.8245 37.8063 35.2197 37.5908 34.8223C37.5908 34.8223 38.5631 34.973 38.3853 35.9993Z" fill="black"/>
<path d="M41.4124 36.5237L40.4034 36.3489C40.4034 36.3489 40.8334 35.7441 40.6179 35.3467C40.6179 35.3467 41.5902 35.4974 41.4124 36.5237Z" fill="black"/>
<path d="M43.6052 35.8643L43.4304 36.8733L42.4236 36.6988L42.4215 36.6985L42.4643 36.4512C42.5372 36.0304 43.048 35.7677 43.6052 35.8643Z" fill="black"/>
<path d="M44.6143 36.0396L43.6053 35.8647L43.4305 36.8737L44.4395 37.0486L44.6143 36.0396Z" fill="black"/>
<path d="M44.4396 37.0486L44.6144 36.0396C44.6144 36.0396 45.2191 36.4695 45.6165 36.254C45.6165 36.254 45.4659 37.2264 44.4396 37.0486Z" fill="black"/>
<path d="M20.2234 32.8525L21.2324 33.0274C21.2324 33.0274 20.8024 33.6322 21.0179 34.0295C21.0179 34.0295 20.0456 33.8788 20.2234 32.8525Z" fill="black"/>
<path d="M24.2595 33.5518L25.2685 33.7266L25.0941 34.7334L25.0937 34.7355L24.8464 34.6927C24.4257 34.6198 24.163 34.109 24.2595 33.5518Z" fill="black"/>
<path d="M26.2776 33.9009L25.2686 33.7261L25.0937 34.7351L26.1027 34.9099L26.2776 33.9009Z" fill="black"/>
<path d="M28.2954 34.2515L27.2864 34.0767L27.1116 35.0857L28.1206 35.2605L28.2954 34.2515Z" fill="black"/>
<path d="M30.3132 34.6006L31.3222 34.7754L31.1478 35.7823L31.1474 35.7843L30.9001 35.7416C30.4794 35.6687 30.2167 35.1578 30.3132 34.6006Z" fill="black"/>
<path d="M31.1477 35.7844L31.3225 34.7754L32.3294 34.9499L32.3315 34.9502L32.2887 35.1974C32.2158 35.6183 31.7049 35.8809 31.1477 35.7844Z" fill="black"/>
<path d="M34.3493 35.2998L34.1744 36.3088L33.1676 36.1344L33.1655 36.134L33.2084 35.8867C33.2813 35.4659 33.792 35.2033 34.3493 35.2998Z" fill="black"/>
<path d="M35.3584 35.4746L34.3494 35.2998L34.1745 36.3088L35.1835 36.4836L35.3584 35.4746Z" fill="black"/>
<path d="M36.3675 35.6494L35.3585 35.4746L35.1837 36.4836L36.1927 36.6584L36.3675 35.6494Z" fill="black"/>
<path d="M38.3855 35.999L37.3765 35.8242L37.2016 36.8332L38.2106 37.008L38.3855 35.999Z" fill="black"/>
<path d="M40.4035 36.3491L40.2286 37.3581L39.2218 37.1837L39.2197 37.1833L39.2626 36.936C39.3355 36.5152 39.8462 36.2526 40.4035 36.3491Z" fill="black"/>
<path d="M41.4124 36.5239L40.4034 36.3491L40.2286 37.3581L41.2376 37.5329L41.4124 36.5239Z" fill="black"/>
<path d="M42.4215 36.6988L41.4125 36.5239L41.2377 37.5329L42.2467 37.7078L42.4215 36.6988Z" fill="black"/>
<path d="M43.4306 36.8736L42.4216 36.6987L42.2468 37.7077L43.2558 37.8826L43.4306 36.8736Z" fill="black"/>
<path d="M43.2556 37.8825L43.4304 36.8735L44.4373 37.048L44.4394 37.0484L44.3966 37.2956C44.3237 37.7165 43.8129 37.9791 43.2556 37.8825Z" fill="black"/>
<path d="M21.8919 35.2195L20.8829 35.0447C20.8829 35.0447 21.3128 34.4399 21.0974 34.0425C21.0974 34.0425 22.0697 34.1932 21.8919 35.2195Z" fill="black"/>
<path d="M23.5801 34.4727C23.8587 34.5209 24.0454 34.786 23.9972 35.0646C23.9489 35.3432 23.6839 35.53 23.4052 35.4817C23.1266 35.4334 22.9399 35.1684 22.9881 34.8898C23.0364 34.6111 23.3014 34.4244 23.5801 34.4727Z" fill="black"/>
<path d="M26.1026 34.9102L25.0936 34.7354L24.9188 35.7444L25.9278 35.9192L26.1026 34.9102Z" fill="black"/>
<path d="M27.1117 35.0855L26.1027 34.9106L25.9278 35.9197L26.9368 36.0945L27.1117 35.0855Z" fill="black"/>
<path d="M28.1206 35.2598L27.1116 35.085L26.9367 36.094L27.9458 36.2688L28.1206 35.2598Z" fill="black"/>
<path d="M33.1657 36.1338L32.9909 37.1428L31.984 36.9684L31.9819 36.968L32.0248 36.7207C32.0977 36.2999 32.6084 36.0372 33.1657 36.1338Z" fill="black"/>
<path d="M32.9908 37.1428L33.1656 36.1338L34.1726 36.3083L34.1747 36.3086L34.1318 36.5558C34.0589 36.9767 33.5481 37.2394 32.9908 37.1428Z" fill="black"/>
<path d="M36.1926 36.6587L35.1836 36.4839L35.0088 37.4929L36.0178 37.6677L36.1926 36.6587Z" fill="black"/>
<path d="M38.2107 37.0083L37.2017 36.8335L37.0268 37.8425L38.0358 38.0173L38.2107 37.0083Z" fill="black"/>
<path d="M39.2198 37.1831L38.2108 37.0083L38.036 38.0173L39.045 38.1921L39.2198 37.1831Z" fill="black"/>
<path d="M40.2287 37.3574L39.2197 37.1826L39.0449 38.1916L40.0539 38.3665L40.2287 37.3574Z" fill="black"/>
<path d="M41.2378 37.5327L40.2288 37.3579L40.0539 38.3669L41.0629 38.5417L41.2378 37.5327Z" fill="black"/>
<path d="M42.2466 37.7075L41.2375 37.5327L41.0627 38.5417L42.0717 38.7165L42.2466 37.7075Z" fill="black"/>
<path d="M45.0988 39.241L44.0898 39.0661C44.0898 39.0661 44.5198 38.4614 44.3043 38.064C44.3043 38.064 45.2766 38.2147 45.0988 39.241Z" fill="black"/>
<path d="M21.8919 35.2197L20.8829 35.0449L20.7081 36.0539L21.7171 36.2288L21.8919 35.2197Z" fill="black"/>
<path d="M22.7258 36.4035L21.7169 36.2287L21.8914 35.2218L21.8917 35.2197L22.1389 35.2626C22.5598 35.3355 22.8224 35.8463 22.7258 36.4035Z" fill="black"/>
<path d="M24.9186 35.7442L24.7437 36.7532C24.7437 36.7532 24.1389 36.3231 23.7416 36.5386C23.7416 36.5386 23.8922 35.5663 24.9186 35.7442Z" fill="black"/>
<path d="M24.744 36.7531L24.9188 35.7441L25.9257 35.9186L25.9278 35.919L25.885 36.1662C25.8121 36.5871 25.3013 36.8497 24.744 36.7531Z" fill="black"/>
<path d="M26.9366 36.0938L27.9457 36.2686C27.9457 36.2686 27.5156 36.8734 27.7311 37.2707C27.7311 37.2707 26.7588 37.12 26.9366 36.0938Z" fill="black"/>
<path d="M32.9908 37.1431L31.9818 36.9683L31.807 37.9773L32.816 38.1521L32.9908 37.1431Z" fill="black"/>
<path d="M35.0089 37.4922L34.8341 38.5012C34.8341 38.5012 34.2293 38.0712 33.832 38.2867C33.832 38.2867 33.9825 37.3144 35.0089 37.4922Z" fill="black"/>
<path d="M34.8341 38.5012L35.0089 37.4922L36.0158 37.6667L36.0179 37.667L35.9751 37.9142C35.9022 38.3351 35.3913 38.5977 34.8341 38.5012Z" fill="black"/>
<path d="M38.036 38.0171L37.027 37.8423L36.8522 38.8513L37.8612 39.0261L38.036 38.0171Z" fill="black"/>
<path d="M41.0629 38.541L42.0719 38.7158L41.8974 39.7227L41.8971 39.7248L41.6498 39.682C41.229 39.6091 40.9663 39.0983 41.0629 38.541Z" fill="black"/>
<path d="M43.0809 38.8911L42.0719 38.7163L41.8971 39.7253L42.9061 39.9001L43.0809 38.8911Z" fill="black"/>
<path d="M44.0898 39.0664L43.0808 38.8916L42.906 39.9006L43.915 40.0754L44.0898 39.0664Z" fill="black"/>
<path d="M45.0988 39.2407L44.0898 39.0659L43.915 40.0749L44.924 40.2497L45.0988 39.2407Z" fill="black"/>
<path d="M20.7079 36.0537L20.5331 37.0627L19.5262 36.8883L19.5241 36.8879L19.567 36.6406C19.6399 36.2198 20.1506 35.9572 20.7079 36.0537Z" fill="black"/>
<path d="M21.717 36.2285L20.708 36.0537L20.5332 37.0627L21.5422 37.2375L21.717 36.2285Z" fill="black"/>
<path d="M22.7259 36.4033L21.7169 36.2285L21.5421 37.2375L22.5511 37.4123L22.7259 36.4033Z" fill="black"/>
<path d="M23.5602 37.5871L22.5512 37.4123L22.7257 36.4054L22.7261 36.4033L22.9733 36.4462C23.3941 36.5191 23.6567 37.0299 23.5602 37.5871Z" fill="black"/>
<path d="M26.2576 37.0156C26.5362 37.0639 26.7229 37.3289 26.6746 37.6076C26.6264 37.8862 26.3614 38.0729 26.0827 38.0246C25.8041 37.9764 25.6174 37.7114 25.6656 37.4327C25.7139 37.1541 25.9789 36.9674 26.2576 37.0156Z" fill="black"/>
<path d="M31.807 37.9771L31.6322 38.9861C31.6322 38.9861 31.0274 38.5561 30.63 38.7715C30.63 38.7715 30.7806 37.7992 31.807 37.9771Z" fill="black"/>
<path d="M32.8161 38.1519L31.8071 37.9771L31.6323 38.9861L32.6413 39.1609L32.8161 38.1519Z" fill="black"/>
<path d="M36.8519 38.8506L36.6771 39.8596L35.6703 39.6852L35.6682 39.6848L35.711 39.4375C35.784 39.0167 36.2947 38.754 36.8519 38.8506Z" fill="black"/>
<path d="M37.8611 39.0254L36.8521 38.8506L36.6772 39.8596L37.6862 40.0344L37.8611 39.0254Z" fill="black"/>
<path d="M38.8702 39.2007L37.8612 39.0259L37.6864 40.0349L38.6954 40.2097L38.8702 39.2007Z" fill="black"/>
<path d="M38.6953 40.2092L38.8701 39.2002C38.8701 39.2002 39.4749 39.6301 39.8723 39.4147C39.8723 39.4147 39.7216 40.387 38.6953 40.2092Z" fill="black"/>
<path d="M43.9152 40.0747L44.9242 40.2495C44.9242 40.2495 44.4941 40.8544 44.7096 41.2517C44.7096 41.2517 43.7373 41.101 43.9152 40.0747Z" fill="black"/>
<path d="M20.5329 37.0635L19.5239 36.8887L19.3491 37.8977L20.3581 38.0725L20.5329 37.0635Z" fill="black"/>
<path d="M21.542 37.2383L22.551 37.4131L22.3765 38.4199L22.3762 38.422L22.1289 38.3793C21.7081 38.3064 21.4454 37.7955 21.542 37.2383Z" fill="black"/>
<path d="M23.56 37.5879L22.551 37.4131L22.3762 38.4221L23.3852 38.5969L23.56 37.5879Z" fill="black"/>
<path d="M24.3942 38.7722L23.3852 38.5974L23.5597 37.5905L23.5601 37.5884L23.8073 37.6312C24.2281 37.7041 24.4907 38.2149 24.3942 38.7722Z" fill="black"/>
<path d="M27.5958 38.2876L27.421 39.2966C27.421 39.2966 26.8162 38.8666 26.4189 39.0821C26.4189 39.0821 26.5694 38.1098 27.5958 38.2876Z" fill="black"/>
<path d="M27.4214 39.2966L27.5962 38.2876C27.5962 38.2876 28.201 38.7175 28.5983 38.5021C28.5983 38.5021 28.4477 39.4744 27.4214 39.2966Z" fill="black"/>
<path d="M30.4482 39.8211L29.4392 39.6462C29.4392 39.6462 29.8691 39.0415 29.6537 38.6441C29.6537 38.6441 30.626 38.7948 30.4482 39.8211Z" fill="black"/>
<path d="M31.632 38.9868L32.641 39.1616C32.641 39.1616 32.2109 39.7665 32.4264 40.1638C32.4264 40.1638 31.4541 40.0131 31.632 38.9868Z" fill="black"/>
<path d="M34.659 39.5117L34.4841 40.5207L33.4773 40.3463L33.4752 40.3459L33.518 40.0986C33.591 39.6778 34.1017 39.4152 34.659 39.5117Z" fill="black"/>
<path d="M35.6681 39.6861L34.6591 39.5112L34.4842 40.5202L35.4932 40.6951L35.6681 39.6861Z" fill="black"/>
<path d="M35.4933 40.6955L35.6681 39.6865L36.675 39.861L36.6771 39.8613L36.6343 40.1086C36.5613 40.5295 36.0505 40.7921 35.4933 40.6955Z" fill="black"/>
<path d="M40.5383 41.5696L39.5293 41.3948C39.5293 41.3948 39.9592 40.79 39.7437 40.3926C39.7437 40.3926 40.7161 40.5433 40.5383 41.5696Z" fill="black"/>
<path d="M43.5652 42.094L42.5563 41.9192C42.5563 41.9192 42.9862 41.3144 42.7707 40.917C42.7707 40.917 43.7431 41.0677 43.5652 42.094Z" fill="black"/>
<path d="M20.3582 38.0728L19.3492 37.8979L19.1744 38.907L20.1834 39.0818L20.3582 38.0728Z" fill="black"/>
<path d="M20.1835 39.0818L20.3583 38.0728C20.3583 38.0728 20.963 38.5027 21.3604 38.2872C21.3604 38.2872 21.2098 39.2596 20.1835 39.0818Z" fill="black"/>
<path d="M23.3852 38.5972L22.3762 38.4224L22.2014 39.4314L23.2104 39.6062L23.3852 38.5972Z" fill="black"/>
<path d="M23.2106 39.6062L23.3854 38.5972L24.3923 38.7716L24.3944 38.772L24.3515 39.0192C24.2786 39.4401 23.7678 39.7027 23.2106 39.6062Z" fill="black"/>
<path d="M25.9076 39.0342C26.1862 39.0825 26.3729 39.3475 26.3247 39.6261C26.2764 39.9047 26.0114 40.0915 25.7328 40.0432C25.4541 39.9949 25.2674 39.7299 25.3157 39.4513C25.3639 39.1727 25.629 38.9859 25.9076 39.0342Z" fill="black"/>
<path d="M29.4393 39.646L29.2645 40.655C29.2645 40.655 28.6597 40.225 28.2624 40.4405C28.2624 40.4405 28.4129 39.4682 29.4393 39.646Z" fill="black"/>
<path d="M29.2643 40.6545L29.4391 39.6455L30.446 39.82L30.4481 39.8203L30.4053 40.0675C30.3323 40.4884 29.8215 40.7511 29.2643 40.6545Z" fill="black"/>
<path d="M33.4753 40.3452L33.3005 41.3542C33.3005 41.3542 32.6957 40.9242 32.2984 41.1397C32.2984 41.1397 32.449 40.1674 33.4753 40.3452Z" fill="black"/>
<path d="M34.4842 40.52L33.4752 40.3452L33.3004 41.3542L34.3094 41.529L34.4842 40.52Z" fill="black"/>
<path d="M34.3095 41.5295L34.4844 40.5205L35.4913 40.695L35.4934 40.6953L35.4505 40.9425C35.3776 41.3634 34.8668 41.6261 34.3095 41.5295Z" fill="black"/>
<path d="M37.0067 40.957C37.2853 41.0053 37.4721 41.2703 37.4238 41.549C37.3755 41.8276 37.1105 42.0143 36.8319 41.966C36.5532 41.9178 36.3665 41.6528 36.4148 41.3741C36.4631 41.0955 36.7281 40.9088 37.0067 40.957Z" fill="black"/>
<path d="M39.5293 41.394L40.5383 41.5689L40.3639 42.5757L40.3635 42.5778L40.1162 42.535C39.6954 42.4621 39.4327 41.9513 39.5293 41.394Z" fill="black"/>
<path d="M41.5473 41.7437L40.5383 41.5688L40.3635 42.5779L41.3725 42.7527L41.5473 41.7437Z" fill="black"/>
<path d="M42.5564 41.919L41.5474 41.7441L41.3725 42.7531L42.3815 42.928L42.5564 41.919Z" fill="black"/>
<path d="M43.5652 42.0933L42.5562 41.9185L42.3813 42.9275L43.3903 43.1023L43.5652 42.0933Z" fill="black"/>
<path d="M44.3993 43.2776L43.3904 43.1028L43.5648 42.0958L43.5652 42.0938L43.8124 42.1366C44.2332 42.2095 44.4959 42.7203 44.3993 43.2776Z" fill="black"/>
<path d="M20.1834 39.0816L19.1744 38.9067L18.9996 39.9157L20.0086 40.0906L20.1834 39.0816Z" fill="black"/>
<path d="M22.2012 39.4307L22.0264 40.4397L21.0195 40.2652L21.0174 40.2649L21.0603 40.0176C21.1332 39.5968 21.6439 39.3341 22.2012 39.4307Z" fill="black"/>
<path d="M23.2105 39.606L22.2015 39.4312L22.0267 40.4402L23.0357 40.615L23.2105 39.606Z" fill="black"/>
<path d="M25.0535 40.9651L24.0445 40.7903C24.0445 40.7903 24.4745 40.1855 24.259 39.7881C24.259 39.7881 25.2314 39.9388 25.0535 40.9651Z" fill="black"/>
<path d="M28.0806 41.4895L27.0716 41.3147C27.0716 41.3147 27.5016 40.7099 27.2861 40.3126C27.2861 40.3126 28.2585 40.4632 28.0806 41.4895Z" fill="black"/>
<path d="M30.7781 40.9175C31.0567 40.9658 31.2434 41.2308 31.1951 41.5094C31.1469 41.788 30.8819 41.9748 30.6032 41.9265C30.3246 41.8782 30.1379 41.6132 30.1861 41.3346C30.2344 41.056 30.4994 40.8692 30.7781 40.9175Z" fill="black"/>
<path d="M36.1527 42.8875L35.1437 42.7126C35.1437 42.7126 35.5736 42.1079 35.3581 41.7105C35.3581 41.7105 36.3305 41.8612 36.1527 42.8875Z" fill="black"/>
<path d="M39.1798 43.4124L38.1708 43.2375C38.1708 43.2375 38.6007 42.6328 38.3852 42.2354C38.3852 42.2354 39.3576 42.3861 39.1798 43.4124Z" fill="black"/>
<path d="M40.3634 42.5781L41.3724 42.753L41.198 43.7598L41.1976 43.7619L40.9503 43.7191C40.5295 43.6462 40.2668 43.1354 40.3634 42.5781Z" fill="black"/>
<path d="M42.3816 42.9278L41.3726 42.7529L41.1977 43.7619L42.2067 43.9368L42.3816 42.9278Z" fill="black"/>
<path d="M43.3905 43.1025L44.3995 43.2774C44.3995 43.2774 43.9695 43.8822 44.185 44.2795C44.185 44.2795 43.2127 44.1288 43.3905 43.1025Z" fill="black"/>
<path d="M18.9995 39.9155L20.0085 40.0904C20.0085 40.0904 19.5785 40.6952 19.794 41.0925C19.794 41.0925 18.8217 40.9418 18.9995 39.9155Z" fill="black"/>
<path d="M21.0176 40.2656L22.0266 40.4405L21.8521 41.4473L21.8518 41.4494L21.6045 41.4066C21.1837 41.3337 20.921 40.8229 21.0176 40.2656Z" fill="black"/>
<path d="M23.0356 40.6153L22.0266 40.4404L21.8518 41.4494L22.8608 41.6243L23.0356 40.6153Z" fill="black"/>
<path d="M24.0445 40.7896L23.0355 40.6147L22.8607 41.6238L23.8697 41.7986L24.0445 40.7896Z" fill="black"/>
<path d="M25.0537 40.9644L24.0447 40.7896L23.8699 41.7986L24.8789 41.9734L25.0537 40.9644Z" fill="black"/>
<path d="M24.8788 41.9738L25.0536 40.9648C25.0536 40.9648 25.6584 41.3948 26.0557 41.1793C26.0557 41.1793 25.9051 42.1517 24.8788 41.9738Z" fill="black"/>
<path d="M28.0807 41.4888L27.0717 41.314L26.8968 42.323L27.9058 42.4978L28.0807 41.4888Z" fill="black"/>
<path d="M27.9059 42.4983L28.0807 41.4893C28.0807 41.4893 28.6855 41.9192 29.0828 41.7037C29.0828 41.7037 28.9322 42.6761 27.9059 42.4983Z" fill="black"/>
<path d="M32.1167 42.188L31.9419 43.197C31.9419 43.197 31.337 42.767 30.9397 42.9825C30.9397 42.9825 31.0903 42.0102 32.1167 42.188Z" fill="black"/>
<path d="M33.1256 42.3633L32.1166 42.1885L31.9418 43.1975L32.9508 43.3723L33.1256 42.3633Z" fill="black"/>
<path d="M32.9508 43.3718L33.1256 42.3628C33.1256 42.3628 33.7304 42.7927 34.1277 42.5773C34.1277 42.5773 33.9771 43.5496 32.9508 43.3718Z" fill="black"/>
<path d="M36.1527 42.8877L35.1437 42.7129L34.9689 43.7219L35.9779 43.8967L36.1527 42.8877Z" fill="black"/>
<path d="M37.1616 43.0625L36.1526 42.8877L35.9778 43.8967L36.9868 44.0715L37.1616 43.0625Z" fill="black"/>
<path d="M38.1707 43.2373L37.1617 43.0625L36.9869 44.0715L37.9959 44.2463L38.1707 43.2373Z" fill="black"/>
<path d="M39.1798 43.4121L38.1708 43.2373L37.996 44.2463L39.005 44.4211L39.1798 43.4121Z" fill="black"/>
<path d="M40.0138 44.5959L39.0049 44.4211L39.1793 43.4142L39.1797 43.4121L39.4269 43.4549C39.8477 43.5279 40.1103 44.0387 40.0138 44.5959Z" fill="black"/>
<path d="M42.2066 43.9365L41.1976 43.7617L41.0228 44.7707L42.0318 44.9455L42.2066 43.9365Z" fill="black"/>
<path d="M43.0408 45.1203L42.0318 44.9455L42.2063 43.9386L42.2067 43.9365L42.4539 43.9794C42.8747 44.0523 43.1373 44.5631 43.0408 45.1203Z" fill="black"/>
<path d="M27.9057 42.4981L26.8967 42.3232L26.7219 43.3322L27.7309 43.5071L27.9057 42.4981Z" fill="black"/>
<path d="M29.4193 42.7603C29.6979 42.8085 29.8847 43.0736 29.8364 43.3522C29.7881 43.6308 29.5231 43.8176 29.2445 43.7693C28.9658 43.721 28.7791 43.456 28.8274 43.1774C28.8757 42.8987 29.1407 42.712 29.4193 42.7603Z" fill="black"/>
<path d="M31.9418 43.1973L32.9508 43.3721C32.9508 43.3721 32.5208 43.9769 32.7362 44.3742C32.7362 44.3742 31.764 44.2236 31.9418 43.1973Z" fill="black"/>
<path d="M34.9687 43.7217L34.7939 44.7307C34.7939 44.7307 34.1891 44.3007 33.7918 44.5162C33.7918 44.5162 33.9424 43.5439 34.9687 43.7217Z" fill="black"/>
<path d="M35.9779 43.8965L34.9689 43.7217L34.794 44.7307L35.8031 44.9055L35.9779 43.8965Z" fill="black"/>
<path d="M40.0139 44.5962L39.0049 44.4214L38.8301 45.4304L39.8391 45.6052L40.0139 44.5962Z" fill="black"/>
<path d="M41.0229 44.7705L42.032 44.9453L41.8575 45.9522L41.8571 45.9543L41.6098 45.9115C41.1891 45.8386 40.9264 45.3278 41.0229 44.7705Z" fill="black"/>
<path d="M41.8572 45.9548L42.032 44.9458L43.0389 45.1203L43.041 45.1206L42.9981 45.3678C42.9252 45.7887 42.4144 46.0514 41.8572 45.9548Z" fill="black"/>
<path d="M27.731 43.5069L26.722 43.332L26.5472 44.341L27.5562 44.5159L27.731 43.5069Z" fill="black"/>
<path d="M27.5561 44.5158L27.731 43.5068C27.731 43.5068 28.3357 43.9368 28.7331 43.7213C28.7331 43.7213 28.5824 44.6937 27.5561 44.5158Z" fill="black"/>
<path d="M30.2535 43.9439C30.5322 43.9921 30.7189 44.2571 30.6706 44.5358C30.6223 44.8144 30.3573 45.0011 30.0787 44.9529C29.8001 44.9046 29.6133 44.6396 29.6616 44.3609C29.7099 44.0823 29.9749 43.8956 30.2535 43.9439Z" fill="black"/>
<path d="M35.803 44.9058L34.7939 44.731L34.6191 45.74L35.6281 45.9148L35.803 44.9058Z" fill="black"/>
<path d="M37.3166 45.1675C37.5953 45.2158 37.782 45.4808 37.7337 45.7594C37.6854 46.038 37.4205 46.2248 37.1418 46.1765C36.8632 46.1282 36.6764 45.8632 36.7247 45.5846C36.773 45.306 37.038 45.1192 37.3166 45.1675Z" fill="black"/>
<path d="M39.8391 45.6045L38.8301 45.4297L38.6553 46.4387L39.6643 46.6135L39.8391 45.6045Z" fill="black"/>
<path d="M43.3706 46.2163C43.6492 46.2646 43.836 46.5296 43.7877 46.8082C43.7394 47.0869 43.4744 47.2736 43.1958 47.2253C42.9171 47.1771 42.7304 46.9121 42.7787 46.6334C42.827 46.3548 43.092 46.168 43.3706 46.2163Z" fill="black"/>
<path d="M27.5562 44.5156L26.5472 44.3408L26.3724 45.3498L27.3814 45.5246L27.5562 44.5156Z" fill="black"/>
<path d="M29.0696 44.7778C29.3482 44.8261 29.5349 45.0911 29.4867 45.3698C29.4384 45.6484 29.1734 45.8351 28.8947 45.7868C28.6161 45.7386 28.4294 45.4736 28.4777 45.1949C28.5259 44.9163 28.7909 44.7296 29.0696 44.7778Z" fill="black"/>
<path d="M32.0967 45.3023C32.3753 45.3505 32.562 45.6155 32.5138 45.8942C32.4655 46.1728 32.2005 46.3595 31.9218 46.3113C31.6432 46.263 31.4565 45.998 31.5048 45.7193C31.553 45.4407 31.818 45.254 32.0967 45.3023Z" fill="black"/>
<path d="M34.6192 45.7398L34.4443 46.7488L33.4375 46.5743L33.4354 46.574L33.4782 46.3267C33.5512 45.9058 34.0619 45.6432 34.6192 45.7398Z" fill="black"/>
<path d="M35.6283 45.9141L34.6193 45.7393L34.4444 46.7483L35.4534 46.9231L35.6283 45.9141Z" fill="black"/>
<path d="M39.6642 46.6133L38.6552 46.4385L38.4803 47.4475L39.4893 47.6223L39.6642 46.6133Z" fill="black"/>
<path d="M27.3816 45.5239L26.3726 45.3491L26.1977 46.3581L27.2067 46.533L27.3816 45.5239Z" fill="black"/>
<path d="M27.2065 46.5334L27.3813 45.5244C27.3813 45.5244 27.9861 45.9544 28.3835 45.7389C28.3835 45.7389 28.2328 46.7112 27.2065 46.5334Z" fill="black"/>
<path d="M30.4083 46.0488L30.2335 47.0578L29.2267 46.8834L29.2246 46.883L29.2674 46.6357C29.3403 46.2149 29.8511 45.9523 30.4083 46.0488Z" fill="black"/>
<path d="M30.2336 47.0578L30.4084 46.0488C30.4084 46.0488 31.0132 46.4788 31.4106 46.2633C31.4106 46.2633 31.2599 47.2357 30.2336 47.0578Z" fill="black"/>
<path d="M33.4353 46.5733L33.2605 47.5822L32.2537 47.4078L32.2516 47.4074L32.2944 47.1602C32.3673 46.7393 32.8781 46.4767 33.4353 46.5733Z" fill="black"/>
<path d="M34.4444 46.7481L33.4354 46.5732L33.2606 47.5823L34.2696 47.7571L34.4444 46.7481Z" fill="black"/>
<path d="M35.4535 46.9229L34.4445 46.748L34.2696 47.7571L35.2786 47.9319L35.4535 46.9229Z" fill="black"/>
<path d="M36.4624 47.0977L35.4534 46.9229L35.2785 47.9319L36.2876 48.1067L36.4624 47.0977Z" fill="black"/>
<path d="M37.4715 47.2725L36.4625 47.0977L36.2877 48.1067L37.2967 48.2815L37.4715 47.2725Z" fill="black"/>
<path d="M38.4806 47.4478L37.4716 47.2729L37.2967 48.282L38.3057 48.4568L38.4806 47.4478Z" fill="black"/>
<path d="M38.3056 48.4563L38.4805 47.4473L39.4874 47.6217L39.4895 47.6221L39.4466 47.8693C39.3737 48.2902 38.8629 48.5528 38.3056 48.4563Z" fill="black"/>
<path d="M26.1974 46.3599L27.2064 46.5347C27.2064 46.5347 26.7764 47.1395 26.9919 47.5368C26.9919 47.5368 26.0196 47.3862 26.1974 46.3599Z" fill="black"/>
<path d="M30.2334 47.0591L29.2244 46.8843L29.0495 47.8933L30.0585 48.0681L30.2334 47.0591Z" fill="black"/>
<path d="M32.2515 47.4087L33.2605 47.5835C33.2605 47.5835 32.8305 48.1883 33.0459 48.5856C33.0459 48.5856 32.0736 48.435 32.2515 47.4087Z" fill="black"/>
<path d="M35.2784 47.9326L34.2694 47.7578L34.0946 48.7668L35.1036 48.9416L35.2784 47.9326Z" fill="black"/>
<path d="M36.2875 48.1079L35.2784 47.9331L35.1036 48.9421L36.1126 49.1169L36.2875 48.1079Z" fill="black"/>
<path d="M36.1128 49.1174L36.2876 48.1084L37.2945 48.2829L37.2966 48.2832L37.2538 48.5304C37.1808 48.9513 36.67 49.214 36.1128 49.1174Z" fill="black"/>
<path d="M42.3415 49.1558L42.1666 50.1648L41.1598 49.9903L41.1577 49.99L41.2005 49.7427C41.2735 49.3219 41.7842 49.0592 42.3415 49.1558Z" fill="black"/>
<path d="M43.1757 50.3396L42.1667 50.1648L42.3412 49.1579L42.3416 49.1558L42.5888 49.1986C43.0096 49.2715 43.2722 49.7823 43.1757 50.3396Z" fill="black"/>
<path d="M27.8658 48.7273L26.8568 48.5525C26.8568 48.5525 27.2867 47.9477 27.0713 47.5503C27.0713 47.5503 28.0436 47.701 27.8658 48.7273Z" fill="black"/>
<path d="M30.0587 48.0674L29.0497 47.8926L28.8749 48.9016L29.8839 49.0764L30.0587 48.0674Z" fill="black"/>
<path d="M34.0945 48.7671L35.1035 48.9419C35.1035 48.9419 34.6735 49.5467 34.889 49.9441C34.889 49.9441 33.9167 49.7934 34.0945 48.7671Z" fill="black"/>
<path d="M39.1395 49.6416L38.9647 50.6506L37.9579 50.4762L37.9558 50.4758L37.9986 50.2285C38.0715 49.8077 38.5823 49.5451 39.1395 49.6416Z" fill="black"/>
<path d="M40.1487 49.8159L39.1396 49.6411L38.9648 50.6501L39.9738 50.8249L40.1487 49.8159Z" fill="black"/>
<path d="M41.1578 49.9907L40.1488 49.8159L39.974 50.8249L40.983 50.9998L41.1578 49.9907Z" fill="black"/>
<path d="M42.1666 50.166L41.1576 49.9912L40.9828 51.0002L41.9918 51.175L42.1666 50.166Z" fill="black"/>
<path d="M43.1758 50.3404L42.1667 50.1655L41.9919 51.1745L43.0009 51.3494L43.1758 50.3404Z" fill="black"/>
<path d="M26.8568 48.5527L27.8658 48.7276L27.6914 49.7344L27.691 49.7365L27.4437 49.6937C27.023 49.6208 26.7603 49.11 26.8568 48.5527Z" fill="black"/>
<path d="M28.8747 48.9019L27.8657 48.7271L27.6909 49.7361L28.6999 49.9109L28.8747 48.9019Z" fill="black"/>
<path d="M29.8839 49.0767L28.8749 48.9019L28.7001 49.9109L29.7091 50.0857L29.8839 49.0767Z" fill="black"/>
<path d="M35.9378 50.1255L35.7629 51.1345L34.7561 50.9601L34.754 50.9597L34.7969 50.7124C34.8698 50.2916 35.3805 50.0289 35.9378 50.1255Z" fill="black"/>
<path d="M36.9469 50.3003L35.9379 50.1255L35.763 51.1345L36.772 51.3093L36.9469 50.3003Z" fill="black"/>
<path d="M37.9559 50.4751L36.9469 50.3003L36.7721 51.3093L37.7811 51.4841L37.9559 50.4751Z" fill="black"/>
<path d="M37.7811 51.4841L37.9559 50.4751L38.9628 50.6496L38.9649 50.6499L38.9221 50.8971C38.8492 51.318 38.3384 51.5807 37.7811 51.4841Z" fill="black"/>
<path d="M39.9739 50.8247L40.9829 50.9995L40.8084 52.0064L40.8081 52.0085L40.5608 51.9657C40.14 51.8928 39.8773 51.382 39.9739 50.8247Z" fill="black"/>
<path d="M41.9919 51.1748L40.9829 51L40.8081 52.009L41.8171 52.1838L41.9919 51.1748Z" fill="black"/>
<path d="M43.0008 51.3496L41.9918 51.1748L41.817 52.1838L42.826 52.3586L43.0008 51.3496Z" fill="black"/>
<path d="M26.1776 49.4736C26.4562 49.5219 26.643 49.7869 26.5947 50.0656C26.5464 50.3442 26.2814 50.5309 26.0028 50.4827C25.7241 50.4344 25.5374 50.1694 25.5857 49.8907C25.634 49.6121 25.899 49.4254 26.1776 49.4736Z" fill="black"/>
<path d="M28.7001 49.9111L29.7091 50.086L29.5346 51.0928L29.5343 51.0949L29.287 51.0521C28.8662 50.9792 28.6035 50.4684 28.7001 49.9111Z" fill="black"/>
<path d="M29.5342 51.0945L29.709 50.0854C29.709 50.0854 30.3137 50.5154 30.7111 50.2999C30.7111 50.2999 30.5605 51.2723 29.5342 51.0945Z" fill="black"/>
<path d="M34.754 50.96L34.5792 51.969C34.5792 51.969 33.9744 51.539 33.5771 51.7545C33.5771 51.7545 33.7276 50.7821 34.754 50.96Z" fill="black"/>
<path d="M35.763 51.1348L34.754 50.96L34.5792 51.969L35.5882 52.1438L35.763 51.1348Z" fill="black"/>
<path d="M35.5882 52.1438L35.7631 51.1348L36.77 51.3092L36.7721 51.3096L36.7292 51.5568C36.6563 51.9777 36.1455 52.2403 35.5882 52.1438Z" fill="black"/>
<path d="M39.2945 51.7461C39.5732 51.7944 39.7599 52.0594 39.7116 52.338C39.6634 52.6167 39.3984 52.8034 39.1197 52.7551C38.8411 52.7068 38.6543 52.4418 38.7026 52.1632C38.7509 51.8846 39.0159 51.6978 39.2945 51.7461Z" fill="black"/>
<path d="M41.817 52.1831L42.826 52.3579C42.826 52.3579 42.396 52.9628 42.6115 53.3601C42.6115 53.3601 41.6392 53.2094 41.817 52.1831Z" fill="black"/>
<path d="M22.0515 28.607L22.6727 25.0149L26.2922 25.642C27.0225 25.7685 27.5115 26.4779 27.3823 27.2233L26.7599 30.8156L23.1422 30.1888C22.4116 30.0622 21.9222 29.3527 22.0515 28.607Z" fill="black"/>
<path d="M25.2523 31.6452L22.9589 31.2479C21.6438 31.02 20.7619 29.7527 20.9922 28.4234L21.7968 23.7714L26.476 24.5822C27.7905 24.8099 28.6723 26.0773 28.442 27.4065L28.0538 29.6469L27.636 32.0583L25.2523 31.6452ZM27.3826 27.223C27.5117 26.4775 27.0227 25.7682 26.2925 25.6416L22.6729 25.0145L22.0517 28.6066C21.9225 29.3524 22.4119 30.0618 23.1425 30.1884L26.7601 30.8152L27.3826 27.223Z" fill="black"/>
<path d="M40.6019 29.5126L39.9784 33.1043L43.598 33.7314C44.3282 33.8579 45.0273 33.3544 45.1565 32.609L45.7789 29.0168L42.1612 28.3899C41.4306 28.2633 40.7311 28.7668 40.6019 29.5126Z" fill="black"/>
<path d="M44.6382 27.7287L42.3449 27.3314C41.0297 27.1035 39.7729 28.0003 39.5426 29.3295L38.7352 33.981L43.4145 34.7918C44.7289 35.0195 45.9857 34.1227 46.216 32.7935L46.6042 30.5531L47.022 28.1417L44.6382 27.7287ZM45.1566 32.6099C45.0274 33.3553 44.3283 33.8588 43.598 33.7323L39.9785 33.1052L40.602 29.5135C40.7312 28.7677 41.4307 28.2642 42.1613 28.3908L45.779 29.0176L45.1566 32.6099Z" fill="black"/>
<path d="M19.2931 44.5287L18.6696 48.1204L22.2891 48.7475C23.0194 48.8741 23.7185 48.3706 23.8477 47.6251L24.4701 44.0329L20.8524 43.406C20.1218 43.2795 19.4223 43.7829 19.2931 44.5287Z" fill="black"/>
<path d="M23.3293 42.7443L21.0359 42.347C19.7208 42.1191 18.464 43.0159 18.2336 44.3452L17.4262 48.9966L22.1055 49.8074C23.4199 50.0351 24.6768 49.1384 24.9071 47.8091L25.2953 45.5687L25.7131 43.1574L23.3293 42.7443ZM23.8476 47.6255C23.7185 48.371 23.0193 48.8745 22.2891 48.7479L18.6695 48.1208L19.293 44.5291C19.4223 43.7833 20.1218 43.2799 20.8524 43.4064L24.47 44.0333L23.8476 47.6255Z" fill="black"/>
<path d="M24.4347 29.3629C25.2542 29.5049 26.0337 28.9557 26.1757 28.1362C26.3176 27.3167 25.7684 26.5373 24.9489 26.3953C24.1294 26.2533 23.35 26.8025 23.208 27.622C23.066 28.4415 23.6152 29.221 24.4347 29.3629Z" fill="black"/>
<path d="M42.5968 32.5104C43.4163 32.6524 44.1958 32.1032 44.3378 31.2837C44.4798 30.4642 43.9305 29.6847 43.111 29.5427C42.2915 29.4008 41.5121 29.95 41.3701 30.7695C41.2281 31.589 41.7773 32.3684 42.5968 32.5104Z" fill="black"/>
<path d="M21.288 47.5255C22.1075 47.6675 22.8869 47.1183 23.0289 46.2988C23.1709 45.4793 22.6217 44.6999 21.8022 44.5579C20.9827 44.4159 20.2033 44.9651 20.0613 45.7846C19.9193 46.6041 20.4685 47.3836 21.288 47.5255Z" fill="black"/>
</svg>
